<svg width="100" height="53" viewBox="0 0 100 53" fill="none" xmlns="http://www.w3.org/2000/svg">
<path fill-rule="evenodd" clip-rule="evenodd" d="M69.259 38.4916C70.0217 36.6517 71.8184 35.452 73.8114 35.452C76.5328 35.452 78.7389 37.6565 78.7389 40.3759C78.7389 42.3674 77.5383 44.1628 75.6971 44.9249C73.8558 45.687 71.7364 45.2657 70.3272 43.8575C68.9179 42.4493 68.4963 40.3315 69.259 38.4916ZM72.1689 40.3759C72.1689 41.2823 72.9043 42.0171 73.8114 42.0171C74.7185 42.0171 75.4539 41.2823 75.4539 40.3759C75.4539 39.4694 74.7185 38.7346 73.8114 38.7346C72.9043 38.7346 72.1689 39.4694 72.1689 40.3759Z" fill="black"/>
<path fill-rule="evenodd" clip-rule="evenodd" d="M19.6084 40.3759C19.6084 37.6565 21.8145 35.452 24.5359 35.452C27.2573 35.452 29.4635 37.6565 29.4635 40.3759C29.4635 43.0953 27.2573 45.2998 24.5359 45.2998C21.8145 45.2998 19.6084 43.0953 19.6084 40.3759ZM22.8934 40.3759C22.8934 41.2824 23.6288 42.0172 24.5359 42.0172C25.4431 42.0172 26.1785 41.2824 26.1785 40.3759C26.1785 39.4695 25.4431 38.7346 24.5359 38.7346C23.6288 38.7346 22.8934 39.4695 22.8934 40.3759Z" fill="black"/>
<path fill-rule="evenodd" clip-rule="evenodd" d="M89.0178 19.4868L73.1472 16.2909L55.5741 1.81486C55.355 1.63309 55.0917 1.5133 54.8115 1.46777C41.7424 -0.481547 28.4599 -0.489269 15.3887 1.44485H5.76223V4.71925H10.5088C7.05459 8.50845 3.92615 12.5861 1.15716 16.9082C0.979495 17.1775 0.884487 17.4935 0.883979 17.8168V27.64C0.881214 27.8933 0.936877 28.1438 1.04659 28.3718L2.51006 31.3008V33.8024L1.05472 36.7313C0.942197 36.9586 0.883743 37.2092 0.883979 37.4632V40.7376C0.883979 41.6418 1.612 42.3748 2.51006 42.3748H14.0227C14.8265 48.0096 19.6212 52.1933 25.2752 52.1933C30.9293 52.1933 35.724 48.0096 36.5278 42.3748H62.8053C63.609 48.0096 68.4037 52.1933 74.0578 52.1933C79.7119 52.1933 84.5065 48.0096 85.3103 42.3748H96.823C97.721 42.3748 98.4491 41.6418 98.4491 40.7376V30.7834C98.3121 25.262 94.3964 20.5719 89.0178 19.4868ZM88.3673 22.6957C90.4324 23.1256 92.2695 24.302 93.5318 26.0028H85.0761L84.0387 21.8247L88.3673 22.6957ZM7.38832 24.7241V22.7284H4.13615V25.5427L7.38832 24.7241ZM14.0227 39.1004H4.13615V37.8495L5.14107 35.826H15.0065C14.5163 36.8612 14.1846 37.9651 14.0227 39.1004ZM17.1448 40.7376C17.1448 45.2585 20.7849 48.9235 25.2752 48.9235C29.7633 48.9181 33.4003 45.2563 33.4057 40.7376C33.4057 36.2166 29.7656 32.5516 25.2752 32.5516C20.7849 32.5516 17.1448 36.2166 17.1448 40.7376ZM62.8053 39.1004H36.5278C36.3659 37.9651 36.0342 36.8612 35.544 35.826H63.7891C63.2988 36.8612 62.9671 37.9651 62.8053 39.1004ZM65.9274 40.7376C65.9274 45.2585 69.5675 48.9235 74.0578 48.9235C78.5459 48.9181 82.1828 45.2563 82.1882 40.7376C82.1882 36.2166 78.5481 32.5516 74.0578 32.5516C69.5675 32.5516 65.9274 36.2166 65.9274 40.7376ZM95.1969 39.1004H85.3103C85.1485 37.9651 84.8168 36.8612 84.3265 35.826H95.1969V39.1004ZM82.0077 32.5516H95.1969V30.7834C95.1928 30.2771 95.1383 29.7725 95.0343 29.2772H83.8143C83.068 29.277 82.4176 28.7653 82.237 28.0362L80.5182 21.1141L72.113 19.4213C71.8521 19.3695 71.608 19.2537 71.4024 19.084L53.8521 4.62593C41.2237 2.83746 28.4072 2.86116 15.7854 4.69633C15.6973 4.71133 15.6081 4.719 15.5187 4.71925C13.9219 5.05487 8.39324 11.9393 4.13615 18.308V19.454H9.0144C9.91246 19.454 10.6405 20.187 10.6405 21.0912V26.0028C10.638 26.7524 10.1303 27.4046 9.40792 27.586L4.87114 28.732L5.59149 30.1826C5.70401 30.4099 5.76247 30.6604 5.76223 30.9144V32.5516H17.3253C21.7385 28.1861 28.812 28.1861 33.2252 32.5516H66.1079C70.521 28.1861 77.5946 28.1861 82.0077 32.5516Z" fill="black"/>
<path fill-rule="evenodd" clip-rule="evenodd" d="M63.3465 16.8455L55.2714 10.478C53.4486 8.93857 50.6827 6.89343 47.7238 6.89343H21.7535C16.0223 6.89343 14.128 9.68903 12.2938 12.3961L12.289 12.4032L9.04268 17.2039C8.70873 17.6949 8.67647 18.3273 8.95877 18.8488C9.24107 19.3703 9.79196 19.6959 10.3915 19.6956H62.332C63.0216 19.6959 63.636 19.2667 63.8644 18.6252C64.0927 17.9837 63.885 17.2701 63.3465 16.8455ZM14.9882 14.1826L15.0048 14.1583C16.7284 11.622 17.7668 10.094 21.7535 10.094H29.8692V16.495H13.4235L14.9882 14.1826ZM33.1155 10.094V16.495H57.7044L53.2019 12.944C50.9165 11.0141 49.1375 10.094 47.7238 10.094H33.1155Z" fill="black"/>
</svg>
