<svg width="113" height="45" viewBox="0 0 113 45" fill="none" xmlns="http://www.w3.org/2000/svg">
<path d="M65.5557 16.684H58.5918V20.6096H65.5557V16.684Z" fill="black"/>
<path fill-rule="evenodd" clip-rule="evenodd" d="M2.48467 11.0582L15.0991 9.2733C17.3992 7.87325 19.7862 6.61996 22.2473 5.52014C30.3748 1.87254 39.196 -0.00965824 48.1191 7.48236e-05H50.3104C60.8408 0.00756159 71.2027 2.62572 80.4516 7.61571L86.8177 11.0567C94.2697 11.1398 101.578 13.1036 108.052 16.7602C110.683 18.2553 112.308 21.0292 112.312 24.0336V34.9592C112.312 35.9759 111.481 36.7995 110.455 36.7995H104.22C102.192 42.5322 95.8573 45.5509 90.0714 43.5414C86.8865 42.4356 84.3831 39.9544 83.267 36.7995H33.6527C31.6246 42.5322 25.2902 45.5509 19.5044 43.5414C16.3202 42.4356 13.816 39.9544 12.7 36.7995H12.0335C11.797 36.7995 11.5628 36.7553 11.3429 36.6685L5.32809 34.2772C2.64108 33.223 0.881233 30.646 0.89106 27.7838V12.8797C0.89106 11.9648 1.57037 11.1884 2.48467 11.0582ZM86.4648 34.5916C87.2862 38.5739 91.2102 41.1426 95.2293 40.3288C99.2493 39.515 101.842 35.627 101.02 31.644C100.198 27.6618 96.2744 25.093 92.2552 25.9068C88.7967 26.6069 86.3137 29.6218 86.3145 33.1197C86.3145 33.6138 86.3651 34.1072 86.4648 34.5916ZM82.6006 33.1197H52.8879V14.72H86.3145C93.2919 14.7222 100.148 16.5266 106.209 19.9548C107.685 20.7918 108.596 22.3483 108.599 24.0336V33.1197H104.885C104.885 27.0224 99.8961 22.0796 93.7423 22.0796C87.5884 22.0796 82.6006 27.0224 82.6006 33.1197ZM52.8879 11.0402H79.031L78.6728 10.8463C70.7335 6.57129 61.9146 4.14779 52.8879 3.76072V11.0402ZM48.1229 3.67987H49.174V11.0402H29.5149L26.2725 7.82759C33.2235 5.07916 40.6392 3.67163 48.1229 3.67987ZM15.8978 34.5916C16.7191 38.5739 20.6431 41.1426 24.663 40.3288C28.6822 39.515 31.2747 35.627 30.4534 31.644C29.632 27.6618 25.7073 25.093 21.6881 25.9068C18.2296 26.6069 15.7466 29.6218 15.7474 33.1197C15.7474 33.6138 15.798 34.1072 15.8978 34.5916ZM10.1762 16.5595H4.60495V14.4744L16.0111 12.861C16.2673 12.8243 16.5121 12.7352 16.7312 12.5997C18.6316 11.4273 20.597 10.3619 22.6183 9.40881L27.4339 14.1802C27.7815 14.5253 28.2538 14.7192 28.7464 14.7192H49.1732V33.1174H34.3116C34.3055 27.0224 29.3207 22.0833 23.1692 22.0773C22.7793 22.0773 22.4082 22.0975 22.0365 22.1342C21.9562 22.1417 21.8779 22.155 21.7993 22.1683C21.7433 22.1778 21.6872 22.1874 21.6299 22.1949C21.5646 22.2044 21.4991 22.2132 21.4335 22.222C21.2665 22.2446 21.0994 22.2671 20.9355 22.3004C20.8542 22.3171 20.7753 22.3385 20.6964 22.36C20.6367 22.3763 20.577 22.3926 20.5162 22.4067C20.459 22.4208 20.4017 22.4344 20.3446 22.448C20.1856 22.4857 20.0272 22.5234 19.8716 22.5707C19.7722 22.6018 19.6875 22.6338 19.5921 22.6698C19.5358 22.6911 19.4758 22.7137 19.4069 22.7384C19.356 22.7565 19.303 22.7749 19.2495 22.7934C19.1085 22.8423 18.9645 22.8922 18.85 22.9406C18.7458 22.984 18.6522 23.0301 18.5515 23.0796C18.4995 23.1052 18.4457 23.1317 18.3876 23.1592C18.3382 23.1826 18.2874 23.2061 18.2366 23.2297C18.1115 23.2878 17.9859 23.3461 17.879 23.4025C17.7287 23.4811 17.5987 23.562 17.4385 23.6653C17.3591 23.7168 17.2777 23.764 17.1977 23.8104C17.1172 23.8572 17.0379 23.9032 16.9632 23.952C16.8564 24.0228 16.7531 24.1009 16.6508 24.1783C16.6112 24.2082 16.5719 24.238 16.5325 24.2672C16.485 24.3027 16.4371 24.3367 16.3891 24.3708C16.2952 24.4374 16.2008 24.5044 16.1078 24.5832C16.0238 24.6545 15.941 24.731 15.8607 24.8053C15.8061 24.8559 15.7526 24.9054 15.7006 24.9515C15.6623 24.9856 15.6243 25.0186 15.5862 25.0515C15.4971 25.1287 15.4082 25.2057 15.3182 25.2959C15.2533 25.3613 15.1883 25.4339 15.1249 25.5046C15.0635 25.573 15.0037 25.6397 14.9472 25.6965L14.9371 25.7066C14.8251 25.819 14.717 25.9275 14.6019 26.0648C14.5067 26.1783 14.4136 26.3038 14.3278 26.4193C14.3066 26.4479 14.2858 26.4758 14.2656 26.5028C14.2284 26.5526 14.1916 26.6 14.1548 26.6476C14.0908 26.7303 14.0265 26.8133 13.9588 26.9093C13.8531 27.0598 13.751 27.2275 13.6679 27.375C13.629 27.4431 13.587 27.5086 13.5444 27.575C13.4952 27.6518 13.4452 27.7298 13.3982 27.8145C13.3406 27.9192 13.2877 28.0297 13.2359 28.1379C13.2095 28.1931 13.1834 28.2476 13.1571 28.3004C13.1339 28.3471 13.1098 28.3932 13.0857 28.4393C13.029 28.548 12.9723 28.6567 12.9267 28.7728C12.891 28.8641 12.8576 28.9574 12.8242 29.0506C12.7968 29.1271 12.7694 29.2036 12.7408 29.2789C12.7226 29.3275 12.7041 29.3757 12.6856 29.4238C12.6401 29.5421 12.5948 29.66 12.5556 29.7813C12.5205 29.8892 12.4927 29.9992 12.465 30.1094C12.4486 30.1743 12.4323 30.2392 12.4143 30.3039C12.4046 30.3392 12.3946 30.3749 12.3845 30.4109C12.3448 30.5532 12.3041 30.6986 12.2746 30.8325C12.2494 30.946 12.2312 31.0676 12.2126 31.1916C12.2039 31.25 12.1951 31.3089 12.1854 31.3678C12.1768 31.421 12.1676 31.4744 12.1584 31.5278C12.1359 31.6582 12.1134 31.7889 12.1 31.9195C12.0886 32.0351 12.0829 32.1562 12.0774 32.2722C12.0742 32.3411 12.071 32.4083 12.0668 32.4713C12.063 32.5266 12.0582 32.5818 12.0534 32.6369C12.0434 32.7503 12.0335 32.8635 12.0335 32.9774L6.70711 30.8579C5.43463 30.36 4.60042 29.1397 4.60495 27.7838V20.24H10.1762V16.5595Z" fill="black"/>
</svg>
