<svg width="99" height="51" viewBox="0 0 99 51" fill="none" xmlns="http://www.w3.org/2000/svg">
<path fill-rule="evenodd" clip-rule="evenodd" d="M14.2076 15.9508L6.42194 19.4327C3.34342 20.8138 1.35728 23.8483 1.37714 27.1746V33.4964C1.37714 38.1843 5.19053 42.0553 9.97713 42.0553H12.3605C13.3536 45.8484 16.3924 48.8051 20.2653 49.7971C26.1642 51.2949 32.1822 47.8325 33.7115 42.0553H67.0787C68.0717 45.8484 71.1105 48.8051 74.9835 49.7971C80.8823 51.2949 86.9003 47.8325 88.4297 42.0553H89.7008C94.4874 42.0553 98.3008 38.1843 98.3008 33.4964V27.9526C98.3008 24.1401 95.6989 20.7749 91.9451 19.7634L77.1484 15.7952L68.2703 4.41585C66.2048 1.77039 62.9872 0.233694 59.5909 0.233694H30.3152C26.5614 0.214242 23.0658 2.10108 21.0797 5.21338L14.2076 15.9508ZM84.8149 39.3125C84.8149 43.1251 81.6569 46.218 77.7641 46.218C73.8514 46.1985 70.6934 43.1057 70.7133 39.3125C70.7133 35.5 73.8713 32.4071 77.7641 32.4071C81.6569 32.4071 84.8149 35.5 84.8149 39.3125ZM23.0459 46.218C26.9388 46.218 30.0967 43.1251 30.0967 39.3125C30.0967 35.5 26.9388 32.4071 23.0459 32.4071C19.1531 32.4071 15.9951 35.5 15.9951 39.3125C15.9753 43.1057 19.1332 46.1985 23.0459 46.218ZM12.0824 38.1649H9.97713C7.37528 38.1649 5.34942 36.0446 5.34942 33.4964H5.36928V27.1746C5.34941 25.3655 6.42194 23.7316 8.09029 22.973L16.3924 19.2576C16.73 19.102 17.0478 18.8492 17.2464 18.5185L24.4362 7.27528C25.6875 5.29119 27.9318 4.10462 30.3152 4.12407H59.5909C61.7558 4.12407 63.8015 5.09667 65.1322 6.76953L74.3877 18.6546C74.6459 19.0048 75.0232 19.2382 75.4403 19.3549L90.9123 23.4982C92.9581 24.0623 94.3682 25.8713 94.3484 27.9526V33.4964C94.3484 36.0446 92.3225 38.1649 89.7207 38.1649H88.7276C88.1715 33.1463 84.1197 29.1587 78.9756 28.614C72.9179 27.9526 67.456 32.2321 66.8006 38.1649H34.0094C33.4533 33.1463 29.4016 29.1587 24.2575 28.614C18.1997 27.9526 12.7379 32.2321 12.0824 38.1649Z" fill="white"/>
<path d="M6.42194 19.4327L6.36053 19.2959L6.36069 19.2958L6.42194 19.4327ZM14.2076 15.9508L14.3339 16.0317L14.3098 16.0694L14.2688 16.0878L14.2076 15.9508ZM1.37714 27.1746L1.52714 27.1737V27.1746H1.37714ZM12.3605 42.0553V41.9053H12.4763L12.5056 42.0173L12.3605 42.0553ZM20.2653 49.7971L20.2284 49.9425L20.2281 49.9424L20.2653 49.7971ZM33.7115 42.0553L33.5665 42.0169L33.596 41.9053H33.7115V42.0553ZM67.0787 42.0553V41.9053H67.1944L67.2238 42.0173L67.0787 42.0553ZM74.9835 49.7971L74.9466 49.9425L74.9463 49.9424L74.9835 49.7971ZM88.4297 42.0553L88.2847 42.0169L88.3142 41.9053H88.4297V42.0553ZM91.9451 19.7634L91.984 19.6185L91.9842 19.6186L91.9451 19.7634ZM77.1484 15.7952L77.1095 15.9401L77.061 15.9271L77.0301 15.8875L77.1484 15.7952ZM68.2703 4.41585L68.3886 4.32354L68.3886 4.32358L68.2703 4.41585ZM30.3152 0.233694V0.383696L30.3144 0.383692L30.3152 0.233694ZM21.0797 5.21338L21.2061 5.29407L21.206 5.29424L21.0797 5.21338ZM77.7641 46.218V46.368L77.7633 46.368L77.7641 46.218ZM70.7133 39.3125H70.8633L70.8633 39.3133L70.7133 39.3125ZM23.0459 46.218V46.368L23.0452 46.368L23.0459 46.218ZM15.9951 39.3125H16.1451V39.3133L15.9951 39.3125ZM12.0824 38.1649L12.2315 38.1814L12.2168 38.3149H12.0824V38.1649ZM5.34942 33.4964H5.19942V33.3464H5.34942V33.4964ZM5.36928 33.4964H5.51928V33.6464H5.36928V33.4964ZM5.36928 27.1746L5.51928 27.1729V27.1746H5.36928ZM8.09029 22.973L8.02821 22.8364L8.02902 22.836L8.09029 22.973ZM16.3924 19.2576L16.4551 19.3939L16.4536 19.3946L16.3924 19.2576ZM17.2464 18.5185L17.1178 18.4412L17.12 18.4377L17.2464 18.5185ZM24.4362 7.27528L24.5631 7.35529L24.5626 7.35609L24.4362 7.27528ZM30.3152 4.12407V4.27408L30.314 4.27407L30.3152 4.12407ZM65.1322 6.76953L65.2496 6.67614L65.2506 6.67737L65.1322 6.76953ZM74.3877 18.6546L74.506 18.5624L74.5084 18.5656L74.3877 18.6546ZM75.4403 19.3549L75.4015 19.4998L75.3999 19.4994L75.4403 19.3549ZM90.9123 23.4982L90.9511 23.3533L90.9522 23.3535L90.9123 23.4982ZM94.3484 27.9526H94.1984L94.1984 27.9512L94.3484 27.9526ZM88.7276 38.1649V38.3149H88.5933L88.5785 38.1814L88.7276 38.1649ZM78.9756 28.614L78.9598 28.7632L78.9594 28.7631L78.9756 28.614ZM66.8006 38.1649L66.9497 38.1814L66.9349 38.3149H66.8006V38.1649ZM34.0094 38.1649V38.3149H33.8751L33.8603 38.1814L34.0094 38.1649ZM24.2575 28.614L24.2417 28.7632L24.2412 28.7631L24.2575 28.614ZM6.36069 19.2958L14.1464 15.8139L14.2688 16.0878L6.48318 19.5696L6.36069 19.2958ZM1.22714 27.1755C1.20692 23.7882 3.22925 20.7006 6.36053 19.2959L6.48334 19.5696C3.4576 20.927 1.50764 23.9084 1.52713 27.1737L1.22714 27.1755ZM1.22713 33.4964V27.1746H1.52714V33.4964H1.22713ZM9.97713 42.2053C5.1075 42.2053 1.22713 38.267 1.22713 33.4964H1.52714C1.52714 38.1017 5.27356 41.9053 9.97713 41.9053V42.2053ZM12.3605 42.2053H9.97713V41.9053H12.3605V42.2053ZM20.2281 49.9424C16.3043 48.9373 13.2228 45.941 12.2154 42.0932L12.5056 42.0173C13.4844 45.7557 16.4804 48.6728 20.3026 49.6518L20.2281 49.9424ZM33.8565 42.0936C32.3055 47.9529 26.2044 51.4599 20.2284 49.9425L20.3022 49.6517C26.1239 51.1299 32.0589 47.712 33.5665 42.0169L33.8565 42.0936ZM67.0787 42.2053H33.7115V41.9053H67.0787V42.2053ZM74.9463 49.9424C71.0225 48.9373 67.9409 45.941 66.9335 42.0932L67.2238 42.0173C68.2025 45.7557 71.1986 48.6728 75.0207 49.6518L74.9463 49.9424ZM88.5747 42.0936C87.0236 47.9529 80.9226 51.4599 74.9466 49.9425L75.0204 49.6517C80.8421 51.1299 86.7771 47.712 88.2847 42.0169L88.5747 42.0936ZM89.7008 42.2053H88.4297V41.9053H89.7008V42.2053ZM98.4508 33.4964C98.4508 38.267 94.5704 42.2053 89.7008 42.2053V41.9053C94.4044 41.9053 98.1508 38.1017 98.1508 33.4964H98.4508ZM98.4508 27.9526V33.4964H98.1508V27.9526H98.4508ZM91.9842 19.6186C95.8021 20.6473 98.4508 24.0708 98.4508 27.9526H98.1508C98.1508 24.2093 95.5958 20.9025 91.9061 19.9082L91.9842 19.6186ZM77.1872 15.6503L91.984 19.6185L91.9063 19.9083L77.1095 15.9401L77.1872 15.6503ZM68.3886 4.32358L77.2667 15.7029L77.0301 15.8875L68.1521 4.50812L68.3886 4.32358ZM59.5909 0.0836941C63.0321 0.0836941 66.2938 1.64065 68.3886 4.32354L68.1521 4.50816C66.1157 1.90013 62.9423 0.383694 59.5909 0.383694V0.0836941ZM30.3152 0.0836941H59.5909V0.383694H30.3152V0.0836941ZM20.9532 5.13269C22.9676 1.97617 26.5116 0.0639823 30.316 0.0836961L30.3144 0.383692C26.6112 0.364502 23.164 2.22598 21.2061 5.29407L20.9532 5.13269ZM14.0813 15.87L20.9533 5.13252L21.206 5.29424L14.3339 16.0317L14.0813 15.87ZM77.7641 46.068C81.577 46.068 84.6649 43.0393 84.6649 39.3125H84.9649C84.9649 43.2109 81.7368 46.368 77.7641 46.368V46.068ZM70.8633 39.3133C70.8439 43.0192 73.9306 46.0489 77.7648 46.068L77.7633 46.368C73.7722 46.3481 70.543 43.1921 70.5633 39.3118L70.8633 39.3133ZM77.7641 32.5571C73.9511 32.5571 70.8633 35.5857 70.8633 39.3125H70.5633C70.5633 35.4142 73.7914 32.2571 77.7641 32.2571V32.5571ZM84.6649 39.3125C84.6649 35.5857 81.577 32.5571 77.7641 32.5571V32.2571C81.7368 32.2571 84.9649 35.4142 84.9649 39.3125H84.6649ZM30.2467 39.3125C30.2467 43.2109 27.0186 46.368 23.0459 46.368V46.068C26.8589 46.068 29.9467 43.0393 29.9467 39.3125H30.2467ZM23.0459 32.2571C27.0186 32.2571 30.2467 35.4142 30.2467 39.3125H29.9467C29.9467 35.5857 26.8589 32.5571 23.0459 32.5571V32.2571ZM15.8451 39.3125C15.8451 35.4142 19.0732 32.2571 23.0459 32.2571V32.5571C19.233 32.5571 16.1451 35.5857 16.1451 39.3125H15.8451ZM23.0452 46.368C19.0541 46.3481 15.8248 43.1921 15.8451 39.3118L16.1451 39.3133C16.1257 43.0192 19.2124 46.0489 23.0467 46.068L23.0452 46.368ZM9.97713 38.0149H12.0824V38.3149H9.97713V38.0149ZM5.49942 33.4964C5.49942 35.9646 7.46095 38.0149 9.97713 38.0149V38.3149C7.28961 38.3149 5.19942 36.1246 5.19942 33.4964H5.49942ZM5.36928 33.6464H5.34942V33.3464H5.36928V33.6464ZM5.51928 27.1746V33.4964H5.21928V27.1746H5.51928ZM8.15238 23.1095C6.53594 23.8445 5.50008 25.4256 5.51927 27.1729L5.21928 27.1762C5.19874 25.3054 6.30793 23.6186 8.02821 22.8364L8.15238 23.1095ZM16.4536 19.3946L8.15157 23.1099L8.02902 22.836L16.3311 19.1207L16.4536 19.3946ZM17.375 18.5957C17.1579 18.9571 16.8145 19.2282 16.4551 19.3939L16.3296 19.1214C16.6455 18.9758 16.9376 18.7412 17.1178 18.4412L17.375 18.5957ZM24.5626 7.35609L17.3728 18.5993L17.12 18.4377L24.3099 7.19447L24.5626 7.35609ZM30.314 4.27407C27.9803 4.25502 25.7855 5.41696 24.5631 7.35529L24.3093 7.19526C25.5895 5.16541 27.8833 3.95422 30.3164 3.97408L30.314 4.27407ZM59.5909 4.27407H30.3152V3.97407H59.5909V4.27407ZM65.0149 6.86291C63.7132 5.22659 61.7111 4.27407 59.5909 4.27407V3.97407C61.8005 3.97407 63.8898 4.96674 65.2496 6.67615L65.0149 6.86291ZM74.2693 18.7468L65.0139 6.86169L65.2506 6.67737L74.506 18.5625L74.2693 18.7468ZM75.3999 19.4994C74.956 19.3752 74.5481 19.1249 74.2669 18.7437L74.5084 18.5656C74.7436 18.8846 75.0904 19.1012 75.4807 19.2104L75.3999 19.4994ZM90.8735 23.643L75.4015 19.4998L75.4791 19.21L90.9511 23.3533L90.8735 23.643ZM94.1984 27.9512C94.2176 25.941 92.8557 24.1896 90.8725 23.6428L90.9522 23.3535C93.0605 23.9349 94.5189 25.8016 94.4984 27.9541L94.1984 27.9512ZM94.1984 33.4964V27.9526H94.4984V33.4964H94.1984ZM89.7207 38.0149C92.2368 38.0149 94.1984 35.9646 94.1984 33.4964H94.4984C94.4984 36.1246 92.4082 38.3149 89.7207 38.3149V38.0149ZM88.7276 38.0149H89.7207V38.3149H88.7276V38.0149ZM78.9914 28.4648C84.2037 29.0167 88.3126 33.0579 88.8767 38.1484L88.5785 38.1814C88.0303 33.2347 84.0357 29.3006 78.9598 28.7632L78.9914 28.4648ZM66.6515 38.1484C67.3164 32.1302 72.855 27.7949 78.9919 28.4649L78.9594 28.7631C72.9808 28.1104 67.5957 32.3339 66.9497 38.1814L66.6515 38.1484ZM34.0094 38.0149H66.8006V38.3149H34.0094V38.0149ZM24.2733 28.4648C29.4856 29.0167 33.5944 33.0579 34.1585 38.1484L33.8603 38.1814C33.3122 33.2347 29.3176 29.3006 24.2417 28.7632L24.2733 28.4648ZM11.9333 38.1484C12.5982 32.1302 18.1369 27.7949 24.2738 28.4649L24.2412 28.7631C18.2626 28.1104 12.8775 32.3339 12.2315 38.1814L11.9333 38.1484Z" fill="#F9F9F9"/>
<path fill-rule="evenodd" clip-rule="evenodd" d="M62.8966 8.2937C61.5846 6.71774 60.8026 6.1189 57.7664 6.1189H35.04C30.0809 6.1189 28.8495 7.98931 27.458 10.1029L27.458 10.1029C27.1979 10.4978 26.9323 10.9013 26.6357 11.3026L23.3047 15.8193C22.9621 16.2812 22.929 16.8762 23.2186 17.3668C23.5083 17.8574 24.0736 18.1638 24.6888 18.1635H67.5271C68.2346 18.1638 68.8651 17.76 69.0994 17.1565C69.3337 16.553 69.1206 15.8815 68.568 15.4821L62.8966 8.2937ZM29.4055 12.9768C29.6 12.7014 29.7802 12.4308 29.9548 12.1687C31.0906 10.4631 31.9883 9.11536 35.04 9.13005H43.3675V15.1523H27.7999L29.4055 12.9768ZM46.6985 9.13005V15.1523L64.8526 15.1015L60.931 10.3108C59.6238 9.1131 58.4601 9.1131 57.0094 9.1131L46.6985 9.13005Z" fill="white"/>
</svg>
