<svg id="Шар_1" data-name="Шар 1" xmlns="http://www.w3.org/2000/svg" viewBox="0 0 84.88 57.79"><defs><style>.cls-1{fill:#fff;}.cls-2{fill-rule:evenodd;}</style></defs><title>suv</title><path class="cls-1" d="M42.4,29.32H38.25a1.25,1.25,0,0,0,0,2.5H42.4a1.25,1.25,0,0,0,0-2.5Z" transform="translate(-0.4 -0.85)"/><path class="cls-2" d="M82.12,36.65v6.24a4.25,4.25,0,0,1-1.25,8.32l-7.47,0a10.79,10.79,0,0,1-20.43,0H32.1a10.8,10.8,0,0,1-20.44,0H6.79a4.25,4.25,0,0,1,0-8.5V37.1H4A3.47,3.47,0,0,1,.55,33.63V19.09A3.47,3.47,0,0,1,4,15.62H6.84l0-4.49A5.1,5.1,0,0,1,12,6h.25V4.76A3.77,3.77,0,0,1,16,1H48a3.77,3.77,0,0,1,3.77,3.76V6c4.81,0,6.68,2.79,7.78,5.19L64,20.85a3.79,3.79,0,0,0,.86,1.36,5.37,5.37,0,0,0,1.64.12H77a5.11,5.11,0,0,1,5.1,5.1v9.23Zm-7.43-2.86,4.93,1.26v-4.4H73.08l1.32,2.58a1.74,1.74,0,0,0,.1.19ZM4,34.61a1,1,0,0,1-1-1V19.09a1,1,0,0,1,1-1H6.83L6.77,32.36v2.25ZM5,46.93a1.75,1.75,0,0,0,1.75,1.76h4.35c0-.3,0-.6,0-.91a10.58,10.58,0,0,1,.33-2.6H6.79A1.75,1.75,0,0,0,5,46.93ZM21.88,56a8.21,8.21,0,1,1,8.28-8.21A8.25,8.25,0,0,1,21.88,56Zm10.78-8.21a9.1,9.1,0,0,1,0,.91H52.45a9.1,9.1,0,0,1,0-.91,10.58,10.58,0,0,1,.32-2.6H45.37a1.25,1.25,0,0,1,0-2.5h8.34a10.81,10.81,0,0,1,18.95,0l7,0V37.62L74,36.19a2.73,2.73,0,0,1-1.73-1.65h0a1.3,1.3,0,0,0-.08-.17L70.7,31.48a2.28,2.28,0,0,1,0-2.25,2.32,2.32,0,0,1,2-1.07h7v-.74a2.6,2.6,0,0,0-2.6-2.6H66.47c-2.37,0-3.48-.1-4.77-2.92l-4.43-9.63c-.83-1.81-2-3.74-5.63-3.74H33.38a1.25,1.25,0,1,1,0-2.49H49.27V4.76A1.28,1.28,0,0,0,48,3.5H16A1.28,1.28,0,0,0,14.7,4.76V6H27.75a1.25,1.25,0,1,1,0,2.49H12a2.62,2.62,0,0,0-2.6,2.61l-.1,21.22V42.68H12.4a10.81,10.81,0,0,1,19,0h7.52a1.25,1.25,0,0,1,0,2.5H32.34A10.58,10.58,0,0,1,32.66,47.78ZM63.19,56a8.21,8.21,0,1,1,8.28-8.21A8.26,8.26,0,0,1,63.19,56Zm10.73-7.3,7,0a1.76,1.76,0,1,0,0-3.51l-7.23,0a10.58,10.58,0,0,1,.33,2.6A9.08,9.08,0,0,1,73.92,48.69Z" transform="translate(-0.4 -0.85)"/><path d="M82.12,42.89H82V43l.11,0Zm3,4.06h0Zm-4.26,4.26v.15h0Zm-7.47,0V51h-.1l0,.1ZM53,51.18l.14,0,0-.11H53Zm-20.87,0V51H32l0,.11Zm-20.44,0,.15,0,0-.11h-.11Zm-4.89-8.5v.15h.15v-.15Zm0-5.58h.15V37H6.77Zm.07-21.48v.15H7v-.15Zm0-4.49h0ZM12.21,6v.15h.15V6ZM51.76,6h-.15v.15h.15Zm7.78,5.19-.13.06h0ZM64,20.85l.14-.06h0Zm.86,1.36.07-.14h0Zm1.64.12v-.15h0ZM79.62,35.05l0,.14.18.05v-.19Zm-4.93-1.26-.12.08,0,.05h.06Zm4.93-3.14h.15V30.5h-.15Zm-6.54,0V30.5h-.24l.11.22Zm1.32,2.58-.13.07h0Zm.1.19.13-.07h0ZM6.83,18.11H7V18H6.83ZM6.77,32.36h0Zm0,2.25v.15h.15v-.15Zm4.37,14.08v.15h.17l0-.17Zm.29-3.51.14,0,0-.18h-.19Zm21.19,3.51-.15,0v.17h.16Zm19.83,0v.15h.16v-.17Zm.28-3.51.15,0,0-.18h-.19Zm1-2.5v.15h.09l0-.08Zm18.95,0-.13.08,0,.07h.08Zm7,0v.15h.15V42.7Zm0-5.08h.15v-.11l-.11,0ZM74,36.19l0,.14h0Zm-1.73-1.65.14-.07h0Zm0,0-.13.06h0Zm-.08-.17-.14.07h0ZM70.7,31.48l-.13.07h0Zm0-2.25-.13-.08h0Zm8.91-1.07v.15h.15v-.15ZM66.47,24.82V25h0ZM61.7,21.9l.13-.07h0Zm-4.43-9.63-.13.06h0ZM49.27,6v.15h.15V6ZM14.7,6h-.15v.15h.15Zm-5.34,5.1h0Zm-.1,21.22h0Zm0,10.32H9.11v.15h.15Zm3.14,0v.15h.09l0-.08Zm19,0-.13.07,0,.08h.09Zm1,2.5V45h-.19l0,.18Zm48.54,3.53v.15h0Zm-7,0h-.15v.16h.16Zm7-3.49v-.15h0Zm-7.23,0V45h-.19l0,.19Zm8.63-2.29V36.65H82v6.24Zm3,4.06a4.41,4.41,0,0,0-3.11-4.2l-.09.28A4.12,4.12,0,0,1,85,47Zm-4.41,4.41A4.42,4.42,0,0,0,85.28,47H85a4.11,4.11,0,0,1-4.11,4.11Zm-7.47,0,7.47,0v-.3L73.4,51Zm-10.21,7.3a10.93,10.93,0,0,0,10.35-7.41l-.28-.09a10.65,10.65,0,0,1-10.07,7.2ZM52.83,51.23a10.93,10.93,0,0,0,10.36,7.41v-.3a10.65,10.65,0,0,1-10.08-7.2Zm-20.73.1H53V51H32.1ZM21.88,58.64a10.94,10.94,0,0,0,10.36-7.41L32,51.14a10.65,10.65,0,0,1-10.08,7.2ZM11.52,51.23a11,11,0,0,0,10.36,7.41v-.3a10.63,10.63,0,0,1-10.07-7.2Zm-4.73.1h4.87V51H6.79Zm-4.4-4.4a4.4,4.4,0,0,0,4.4,4.4V51a4.11,4.11,0,0,1-4.1-4.1Zm4.38-4.4a4.42,4.42,0,0,0-4.38,4.4h.3a4.11,4.11,0,0,1,4.08-4.1ZM6.62,37.1v5.58h.3V37.1ZM4,37.25H6.77V37H4ZM.4,33.63A3.62,3.62,0,0,0,4,37.25V37A3.32,3.32,0,0,1,.7,33.63Zm0-14.54V33.63H.7V19.09ZM4,15.47A3.62,3.62,0,0,0,.4,19.09H.7A3.32,3.32,0,0,1,4,15.77Zm2.82,0H4v.3H6.84Zm-.12-4.34,0,4.49H7l0-4.49ZM12,5.89a5.26,5.26,0,0,0-5.24,5.24H7A5,5,0,0,1,12,6.19Zm0,0h0v.3h0Zm.24,0H12v.3h.24Zm-.15-1.13V6h.3V4.76ZM16,.85a3.92,3.92,0,0,0-3.92,3.91h.3A3.62,3.62,0,0,1,16,1.15Zm32,0H16v.3H48Zm3.92,3.91A3.92,3.92,0,0,0,48,.85v.3a3.62,3.62,0,0,1,3.62,3.61Zm0,1.28V4.76h-.3V6Zm7.77,5.13a9.54,9.54,0,0,0-2.54-3.53,8.23,8.23,0,0,0-5.38-1.75v.3A8,8,0,0,1,57,7.87a9.35,9.35,0,0,1,2.46,3.42Zm4.42,9.62-4.42-9.62-.27.12,4.42,9.63Zm.79,1.28a.57.57,0,0,1-.17-.16,3,3,0,0,1-.21-.32c-.15-.25-.29-.55-.41-.8l-.27.13a9.12,9.12,0,0,0,.42.82,1.88,1.88,0,0,0,.24.36,1,1,0,0,0,.26.24Zm1.57.11h-1l-.35,0-.21-.06-.14.27a1.18,1.18,0,0,0,.3.09l.38,0h1Zm.49,0h-.49v.3H67Zm10.07,0H67v.3H77Zm5.25,5.25A5.26,5.26,0,0,0,77,22.17v.3a5,5,0,0,1,5,5Zm0,2v-2H82v2Zm0,7.24V29.41H82v7.24ZM79.66,34.9l-4.93-1.26-.07.29,4.93,1.26Zm-.19-4.25v4.4h.3v-4.4Zm-6.39.15h6.54v-.3H73.08Zm1.45,2.36-1.31-2.57-.27.13,1.32,2.58Zm.1.19-.1-.19-.26.14.09.19Zm.19.36a3.78,3.78,0,0,1-.19-.36l-.27.14a4.32,4.32,0,0,0,.21.38ZM2.9,33.63A1.13,1.13,0,0,0,4,34.76v-.3a.83.83,0,0,1-.82-.83Zm0-14.54V33.63h.3V19.09ZM4,18A1.13,1.13,0,0,0,2.9,19.09h.3A.83.83,0,0,1,4,18.26Zm2.81,0H4v.3H6.83Zm.09,14.4L7,18.11h-.3L6.62,32.36Zm0,2.25V32.36h-.3v2.25ZM4,34.76H6.77v-.3H4ZM6.79,48.54a1.61,1.61,0,0,1-1.6-1.61h-.3a1.91,1.91,0,0,0,1.9,1.91Zm4.35,0H6.79v.3h4.35ZM11,47.78c0,.31,0,.62,0,.92l.3,0c0-.29,0-.59,0-.89Zm.33-2.64A11,11,0,0,0,11,47.78h.3a10.46,10.46,0,0,1,.32-2.57Zm-4.49.19h4.64V45H6.79Zm-1.6,1.6a1.6,1.6,0,0,1,1.6-1.6V45a1.9,1.9,0,0,0-1.9,1.9Zm8.26.85a8.4,8.4,0,0,0,8.43,8.36v-.3a8.11,8.11,0,0,1-8.13-8.06Zm8.43-8.36a8.4,8.4,0,0,0-8.43,8.36h.3a8.11,8.11,0,0,1,8.13-8.06Zm8.43,8.36a8.4,8.4,0,0,0-8.43-8.36v.3A8.1,8.1,0,0,1,30,47.78Zm-8.43,8.36a8.4,8.4,0,0,0,8.43-8.36H30a8.1,8.1,0,0,1-8.13,8.06ZM32.77,48.7c0-.3,0-.61,0-.92h-.3a8.7,8.7,0,0,1,0,.89Zm19.68-.16H32.62v.3H52.45Zm-.19-.76c0,.31,0,.62,0,.92l.3,0a8.7,8.7,0,0,1,0-.89Zm.32-2.64a11,11,0,0,0-.32,2.64h.3a10.46,10.46,0,0,1,.32-2.57Zm-7.21.19h7.36V45H45.37ZM44,43.93a1.4,1.4,0,0,0,1.4,1.4V45a1.1,1.1,0,0,1-1.1-1.1Zm1.4-1.4a1.4,1.4,0,0,0-1.4,1.4h.3a1.1,1.1,0,0,1,1.1-1.1Zm8.34,0H45.37v.3h8.34Zm9.48-5.61a11,11,0,0,0-9.61,5.69l.26.14a10.66,10.66,0,0,1,9.35-5.53Zm9.61,5.69a11,11,0,0,0-9.61-5.69v.3a10.63,10.63,0,0,1,9.34,5.54Zm6.82-.06-7,0v.3l7,0Zm-.15-4.93V42.7h.3V37.62ZM74,36.33l5.64,1.44.07-.29L74,36ZM72.13,34.6A2.82,2.82,0,0,0,74,36.33L74,36a2.54,2.54,0,0,1-1.63-1.57Zm0,0h0l.27-.14h0ZM72,34.44l.09.16.27-.13-.09-.17Zm-1.47-2.89L72,34.44l.27-.14-1.47-2.89Zm0-2.4a2.41,2.41,0,0,0,0,2.4l.27-.14a2.1,2.1,0,0,1,0-2.1ZM72.66,28a2.46,2.46,0,0,0-2.08,1.14l.26.16a2.15,2.15,0,0,1,1.82-1Zm7,0h-7v.3h7Zm-.15-.59v.74h.3v-.74ZM77,25a2.45,2.45,0,0,1,2.45,2.45h.3A2.75,2.75,0,0,0,77,24.67ZM67,25H77v-.3H67Zm-.48,0H67v-.3h-.48Zm-4.91-3a5,5,0,0,0,2,2.6,6,6,0,0,0,2.86.41v-.3a5.77,5.77,0,0,1-2.72-.38,4.75,4.75,0,0,1-1.92-2.46Zm-4.42-9.63L61.56,22l.27-.13-4.42-9.62Zm-5.5-3.65a5.64,5.64,0,0,1,3.77,1.16,6.83,6.83,0,0,1,1.73,2.49l.27-.12a7,7,0,0,0-1.81-2.6,5.9,5.9,0,0,0-4-1.23Zm-18.26,0H51.64v-.3H33.38ZM32,7.29a1.4,1.4,0,0,0,1.4,1.39v-.3a1.09,1.09,0,0,1-1.1-1.09Zm1.4-1.4A1.4,1.4,0,0,0,32,7.29h.3a1.1,1.1,0,0,1,1.1-1.1Zm15.89,0H33.38v.3H49.27Zm-.15-1.13V6h.3V4.76ZM48,3.65a1.12,1.12,0,0,1,1.13,1.11h.3A1.42,1.42,0,0,0,48,3.35Zm-32,0H48v-.3H16ZM14.85,4.76A1.12,1.12,0,0,1,16,3.65v-.3a1.42,1.42,0,0,0-1.43,1.41Zm0,1.28V4.76h-.3V6Zm12.9-.15h-13v.3H27.75Zm1.4,1.4a1.4,1.4,0,0,0-1.4-1.4v.3a1.1,1.1,0,0,1,1.1,1.1Zm-1.4,1.39a1.4,1.4,0,0,0,1.4-1.39h-.3a1.09,1.09,0,0,1-1.1,1.09ZM12,8.68H27.75v-.3H12Zm0,0h0v-.3h0ZM9.51,11.14A2.47,2.47,0,0,1,12,8.68v-.3a2.77,2.77,0,0,0-2.75,2.76Zm-.1,21.22.1-21.22h-.3l-.1,21.22Zm0,10.32V32.36h-.3V42.68Zm3-.15H9.26v.3H12.4Zm9.48-5.61a11,11,0,0,0-9.61,5.69l.27.14a10.64,10.64,0,0,1,9.34-5.53Zm9.61,5.69a11,11,0,0,0-9.61-5.69v.3a10.66,10.66,0,0,1,9.35,5.53Zm7.39-.08H31.36v.3h7.52Zm1.39,1.4a1.4,1.4,0,0,0-1.39-1.4v.3A1.09,1.09,0,0,1,40,43.93Zm-1.39,1.4a1.4,1.4,0,0,0,1.39-1.4H40A1.09,1.09,0,0,1,38.88,45Zm-6.54,0h6.54V45H32.34Zm.47,2.45a10.49,10.49,0,0,0-.33-2.64l-.29.07a10.46,10.46,0,0,1,.32,2.57Zm21.94,0a8.41,8.41,0,0,0,8.44,8.36v-.3a8.11,8.11,0,0,1-8.14-8.06Zm8.44-8.36a8.41,8.41,0,0,0-8.44,8.36h.3a8.11,8.11,0,0,1,8.14-8.06Zm8.43,8.36a8.41,8.41,0,0,0-8.43-8.36v.3a8.11,8.11,0,0,1,8.13,8.06Zm-8.43,8.36a8.41,8.41,0,0,0,8.43-8.36h-.3a8.11,8.11,0,0,1-8.13,8.06Zm17.69-7.58-7,0v.3l7,0ZM82.48,47a1.61,1.61,0,0,1-1.6,1.61v.3A1.91,1.91,0,0,0,82.78,47Zm-1.61-1.6A1.61,1.61,0,0,1,82.48,47h.3a1.91,1.91,0,0,0-1.91-1.9Zm-7.23,0,7.23,0v-.3l-7.23,0Zm.48,2.45a10.83,10.83,0,0,0-.33-2.63l-.29.07a10.81,10.81,0,0,1,.32,2.56Zm-.05.92c0-.3.05-.61.05-.92h-.3c0,.3,0,.6,0,.9Z" transform="translate(-0.4 -0.85)"/><path class="cls-2" d="M16.86,47.78a5,5,0,1,1,5,5A5,5,0,0,1,16.86,47.78Zm2.5,0a2.52,2.52,0,1,0,2.52-2.49A2.51,2.51,0,0,0,19.36,47.78Z" transform="translate(-0.4 -0.85)"/><path class="cls-2" d="M58.17,47.78a5,5,0,1,1,5,5A5,5,0,0,1,58.17,47.78Zm2.5,0a2.52,2.52,0,1,0,2.52-2.49A2.51,2.51,0,0,0,60.67,47.78Z" transform="translate(-0.4 -0.85)"/><path class="cls-2" d="M53.38,26.1H40.09a3.62,3.62,0,0,1-3.51-3.73V17.15a3.64,3.64,0,0,1,3.51-3.75H50c2.31,0,3.3.1,4.36,2.51l2.35,4.74,0,.05a4,4,0,0,1-.05,3.86A3.77,3.77,0,0,1,53.38,26.1ZM40.09,15.89a1.18,1.18,0,0,0-1,1.26v5.22a1.17,1.17,0,0,0,1,1.24H53.38a1.47,1.47,0,0,0,1.22-.41,1.71,1.71,0,0,0-.14-1.46L52.11,17a.08.08,0,0,0,0,0c-.34-.79-.49-.93-.54-1a5.39,5.39,0,0,0-1.51-.1H40.09Z" transform="translate(-0.4 -0.85)"/><path d="M40.09,26.1v.15h0Zm13.29,0V26h0Zm1-10.19-.13.06h0Zm2.35,4.74-.13.06h0Zm0,.05.13-.06h0Zm-.05,3.86-.12-.09h0Zm-16.6-.95v.15h0Zm13.29,0v-.15h0Zm1.22-.41-.12-.08h0Zm-.14-1.46.14-.06h0ZM52.11,17l-.13.06h0Zm0,0L52,17h0Zm-.54-1,.07-.14h0ZM50,15.89V16h0Zm-.06,0v-.15h0ZM40.09,26.25H53.38V26H40.09Zm-3.66-3.88a3.78,3.78,0,0,0,3.66,3.88V26a3.48,3.48,0,0,1-3.36-3.58Zm0-5.22v5.22h.3V17.15Zm3.66-3.9a3.79,3.79,0,0,0-3.66,3.9h.3a3.48,3.48,0,0,1,3.36-3.6Zm9.89,0H40.09v.3H50Zm0,0h0v.3h0Zm4.5,2.6a4,4,0,0,0-1.78-2.24A6.36,6.36,0,0,0,50,13.25v.3a6,6,0,0,1,2.59.33A3.79,3.79,0,0,1,54.23,16Zm2.35,4.73L54.5,15.84l-.27.13,2.35,4.74Zm0,.06a.14.14,0,0,0,0-.06l-.27.13a.08.08,0,0,0,0,.05Zm0,4a4.14,4.14,0,0,0,0-4l-.27.12a3.84,3.84,0,0,1,0,3.71Zm-3.44,1.61a3.92,3.92,0,0,0,3.44-1.61l-.25-.17A3.61,3.61,0,0,1,53.38,26Zm-14.16-9.1A1,1,0,0,1,40.09,16v-.3a1.33,1.33,0,0,0-1.17,1.41Zm0,5.22V17.15h-.3v5.22Zm.87,1.09a1,1,0,0,1-.87-1.09h-.3a1.32,1.32,0,0,0,1.17,1.39Zm13.29,0H40.09v.3H53.38Zm1.1-.34a.74.74,0,0,1-.37.24,2.52,2.52,0,0,1-.73.1v.3a2.53,2.53,0,0,0,.82-.12.94.94,0,0,0,.53-.36Zm-.16-1.32a2.7,2.7,0,0,1,.23.82.79.79,0,0,1-.07.5l.25.16a1,1,0,0,0,.12-.69,3,3,0,0,0-.25-.91ZM52,17.06l2.35,4.73.26-.13-2.34-4.74ZM52,17l0,.05.27-.13a.08.08,0,0,1,0-.05Zm-.47-.88s0,0,.1.13A5.64,5.64,0,0,1,52,17l.28-.12a8.2,8.2,0,0,0-.39-.79.75.75,0,0,0-.22-.24ZM50,16H51l.33,0a.5.5,0,0,1,.17,0l.14-.27a1.5,1.5,0,0,0-.27-.07l-.36,0c-.27,0-.61,0-1,0ZM50,16H50v-.3H50Zm-9.89,0H50v-.3H40.09Z" transform="translate(-0.4 -0.85)"/><path class="cls-2" d="M16.92,13.4H29.3a3.36,3.36,0,0,1,3.36,3.36v6A3.36,3.36,0,0,1,29.3,26.1H16.92a3.36,3.36,0,0,1-3.36-3.35v-6A3.36,3.36,0,0,1,16.92,13.4ZM29.3,23.61a.87.87,0,0,0,.86-.86v-6a.88.88,0,0,0-.86-.87H16.92a.88.88,0,0,0-.86.87v6a.88.88,0,0,0,.86.86Z" transform="translate(-0.4 -0.85)"/><path d="M29.3,13.25H16.92v.3H29.3Zm3.51,3.51a3.51,3.51,0,0,0-3.51-3.51v.3a3.21,3.21,0,0,1,3.21,3.21Zm0,6v-6h-.3v6Zm-3.51,3.5a3.51,3.51,0,0,0,3.51-3.5h-.3A3.21,3.21,0,0,1,29.3,26Zm-12.38,0H29.3V26H16.92Zm-3.51-3.5a3.51,3.51,0,0,0,3.51,3.5V26a3.21,3.21,0,0,1-3.21-3.2Zm0-6v6h.3v-6Zm3.51-3.51a3.51,3.51,0,0,0-3.51,3.51h.3a3.21,3.21,0,0,1,3.21-3.21ZM30,22.75a.72.72,0,0,1-.71.71v.3a1,1,0,0,0,1-1Zm0-6v6h.3v-6ZM29.3,16a.72.72,0,0,1,.71.72h.3a1,1,0,0,0-1-1ZM16.92,16H29.3v-.3H16.92Zm-.71.72a.73.73,0,0,1,.71-.72v-.3a1,1,0,0,0-1,1Zm0,6v-6h-.3v6Zm.71.71a.73.73,0,0,1-.71-.71h-.3a1,1,0,0,0,1,1Zm12.38,0H16.92v.3H29.3Z" transform="translate(-0.4 -0.85)"/></svg>