<svg width="39" height="50" viewBox="0 0 39 50" fill="none" xmlns="http://www.w3.org/2000/svg">
<path d="M15.2701 3.01819H23.6266V4.42429H26.6444V2.82135C26.6448 1.26572 25.3799 0 23.825 0H15.0718C13.5169 0 12.252 1.26572 12.252 2.82135V4.42429H15.2701V3.01819Z" fill="#ED3C3C"/>
<path fill-rule="evenodd" clip-rule="evenodd" d="M5.28336 16.3818H33.6143C34.3906 16.3818 35.0018 17.0441 34.9388 17.8181L32.5703 47.1054C32.4383 48.7408 31.0745 50 29.4361 50H9.46121C7.8228 50 6.45905 48.7408 6.32706 47.1058L3.95851 17.8181C3.89595 17.0441 4.50706 16.3818 5.28336 16.3818ZM12.0487 46.8792C12.08 46.8792 12.1117 46.8781 12.1433 46.8761C12.9749 46.8246 13.6078 46.109 13.5563 45.277L12.0724 21.2334C12.0213 20.401 11.3022 19.7697 10.4733 19.82C9.64165 19.8711 9.00879 20.5872 9.05991 21.4191L10.5442 45.4628C10.5934 46.2631 11.2576 46.8792 12.0487 46.8792ZM20.9747 45.3701C20.9747 46.2032 20.2991 46.8788 19.4656 46.8788C18.6321 46.8788 17.9565 46.2032 17.9565 45.3701V21.3261C17.9565 20.4926 18.6321 19.817 19.4656 19.817C20.2988 19.817 20.9747 20.4926 20.9747 21.3261V45.3701ZM28.4206 45.4586L29.8378 21.4149C29.8866 20.583 29.2519 19.8685 28.4199 19.8196C27.5856 19.7704 26.8738 20.4052 26.825 21.2372L25.4082 45.2812C25.359 46.1132 25.9937 46.8273 26.8257 46.8765C26.8559 46.8781 26.886 46.8788 26.9157 46.8788C27.7084 46.8788 28.3737 46.2605 28.4206 45.4586Z" fill="#ED3C3C"/>
<path d="M38.8328 11.7249L37.8417 8.754C37.5804 7.97084 36.8473 7.4425 36.0214 7.4425H2.87585C2.05035 7.4425 1.31678 7.97084 1.05586 8.754L0.0647985 11.7249C-0.126318 12.2979 0.1224 12.8823 0.586649 13.1737C0.775858 13.2923 0.999781 13.3637 1.24583 13.3637H37.6518C37.8978 13.3637 38.1221 13.2923 38.311 13.1733C38.7752 12.8819 39.0239 12.2975 38.8328 11.7249Z" fill="#ED3C3C"/>
</svg>
