<svg width="40" height="50" viewBox="0 0 40 50" fill="none" xmlns="http://www.w3.org/2000/svg">
<g opacity="0.295685">
<path fill-rule="evenodd" clip-rule="evenodd" d="M36.4285 36.5758C37.5361 38.92 38.6423 39.6949 38.7892 39.7903C39.4086 40.0769 39.7139 40.7391 39.5716 41.4101C39.4277 42.0877 38.7942 42.5549 38.1026 42.5549H27.3656C27.3056 46.6702 23.9469 50 19.8243 50C15.7017 50 12.343 46.6702 12.283 42.5549H1.54598C0.854282 42.5549 0.220884 42.0877 0.0770363 41.4101C-0.0654441 40.7391 0.239927 40.077 0.859263 39.7903C1.00633 39.6948 2.11249 38.9199 3.22001 36.5758C5.25409 32.2708 5.68104 26.2066 5.68104 21.8774C5.68104 16.1317 9.11395 11.1743 14.0331 8.9542V5.56992C14.0331 2.49863 16.5276 0 19.5938 0H20.0547C23.1209 0 25.6154 2.49863 25.6154 5.56992V8.95439C30.5182 11.1674 33.9442 16.0996 33.9664 21.8212C33.9671 21.8399 33.9675 21.8586 33.9675 21.8774C33.9675 26.2066 34.3944 32.2709 36.4285 36.5758ZM19.5939 2.93447C18.1431 2.93447 16.9629 4.1167 16.9629 5.56992H16.963V8.00293C17.8872 7.81201 18.844 7.71152 19.8239 7.71152C20.8041 7.71152 21.7612 7.81211 22.6858 8.00322V5.56992C22.6858 4.1167 21.5056 2.93447 20.0548 2.93447H19.5939ZM19.8243 47.0655C17.3172 47.0655 15.2722 45.0522 15.2127 42.555H24.4358C24.3764 45.0521 22.3314 47.0655 19.8243 47.0655ZM4.88436 39.6203H25.7227H34.7642C34.5109 39.2254 34.2529 38.7783 33.9966 38.2729C32.0388 34.4124 31.0433 28.916 31.0378 21.9363C31.0375 21.9283 31.0372 21.9202 31.0371 21.9121C31.0369 21.9022 31.0368 21.8923 31.0368 21.8823C31.0368 15.6844 26.0066 10.646 19.8238 10.646C13.641 10.646 8.61083 15.6844 8.61083 21.8774C8.61083 28.8853 7.61532 34.4015 5.65204 38.2729C5.39569 38.7782 5.13778 39.2254 4.88436 39.6203Z" fill="black"/>
</g>
</svg>
