<svg width="46" height="39" viewBox="0 0 46 39" fill="none" xmlns="http://www.w3.org/2000/svg">
<g opacity="0.808919">
<path fill-rule="evenodd" clip-rule="evenodd" d="M6.14356 0H40.0665C43.184 0 45.7203 2.53627 45.7203 5.65382C45.7203 7.16506 45.132 8.58497 44.0637 9.65213C42.9977 10.7193 41.5776 11.3076 40.0665 11.3076H38.653V32.5094C38.653 35.627 36.1167 38.1633 32.9992 38.1633C31.6406 38.1633 30.3272 37.6741 29.3009 36.786C28.7936 36.347 28.3722 35.8248 28.0521 35.2472C27.732 35.8248 27.3107 36.347 26.8033 36.786C25.777 37.6741 24.4636 38.1633 23.105 38.1633C21.7464 38.1633 20.4331 37.6741 19.4067 36.786C18.8994 36.347 18.478 35.8248 18.1579 35.2472C17.8379 35.8248 17.4165 36.347 16.9091 36.786C15.8828 37.6741 14.5694 38.1633 13.2108 38.1633C10.0933 38.1633 7.55702 35.627 7.55702 32.5094V11.3076H6.14356C3.02601 11.3076 0.489746 8.77137 0.489746 5.65382C0.489746 4.14257 1.07801 2.72267 2.14631 1.65551C3.21232 0.58835 4.6324 0 6.14356 0ZM40.0665 8.48073C40.822 8.48073 41.5317 8.18682 42.0648 7.65315C42.5995 7.11904 42.8934 6.4094 42.8934 5.65382C42.8934 4.09504 41.6252 2.82691 40.0665 2.82691H6.14356C5.38798 2.82691 4.67834 3.12082 4.1452 3.65449C3.61056 4.1886 3.31665 4.89824 3.31665 5.65382C3.31665 7.21259 4.58479 8.48073 6.14356 8.48073H7.55702V7.774C7.55702 6.99342 8.1898 6.36054 8.97047 6.36054C9.75114 6.36054 10.3839 6.99342 10.3839 7.774V32.5094C10.3839 34.0682 11.6521 35.3364 13.2108 35.3364C14.5937 35.3364 15.7948 34.3082 16.0047 32.9446C16.1695 31.8734 17.0751 31.096 18.1579 31.096C19.2407 31.096 20.1463 31.8734 20.3111 32.9446C20.521 34.3082 21.7221 35.3364 23.105 35.3364C24.4879 35.3364 25.689 34.3082 25.8989 32.9446C26.0637 31.8734 26.9693 31.096 28.0521 31.096C29.1349 31.096 30.0405 31.8734 30.2053 32.9446C30.4152 34.3082 31.6163 35.3364 32.9992 35.3364C34.558 35.3364 35.8261 34.0682 35.8261 32.5094V7.774C35.8261 6.99342 36.4589 6.36054 37.2396 6.36054C38.0202 6.36054 38.653 6.99342 38.653 7.774V8.48073H40.0665Z" fill="black"/>
<path d="M28.0523 26.1489H18.1581C17.3774 26.1489 16.7446 25.516 16.7446 24.7354C16.7446 23.9549 17.3774 23.322 18.1581 23.322H28.0523C28.8329 23.322 29.4657 23.9549 29.4657 24.7354C29.4657 25.516 28.8329 26.1489 28.0523 26.1489Z" fill="black"/>
<path d="M28.0523 19.0816H18.1581C17.3774 19.0816 16.7446 18.4488 16.7446 17.6682C16.7446 16.8876 17.3774 16.2547 18.1581 16.2547H28.0523C28.8329 16.2547 29.4657 16.8876 29.4657 17.6682C29.4657 18.4488 28.8329 19.0816 28.0523 19.0816Z" fill="black"/>
</g>
</svg>
