<svg width="44" height="39" viewBox="0 0 44 39" fill="none" xmlns="http://www.w3.org/2000/svg">
<g opacity="0.808919">
<path fill-rule="evenodd" clip-rule="evenodd" d="M37.5056 14.5569C40.5874 14.7969 43.0284 17.6227 43.0284 21.0641C43.0284 24.5056 40.5874 27.3314 37.5056 27.5714C37.0495 29.1085 35.6249 30.2332 33.9419 30.2332H33.6114C31.5618 30.2332 29.8942 28.5657 29.8942 26.516V15.6122C29.8942 13.9801 30.9521 12.5912 32.4178 12.0928C31.6438 6.61976 27.2017 2.47813 21.8816 2.47813C16.5615 2.47813 12.1194 6.61976 11.3454 12.0928C12.8111 12.5912 13.869 13.9801 13.869 15.6122V26.516C13.869 28.1425 12.8184 29.5275 11.3606 30.0304C11.8196 31.7617 13.3995 33.0418 15.2732 33.0418H15.5598C16.0782 31.507 17.5307 30.3984 19.2383 30.3984H24.525C26.6657 30.3984 28.4074 32.1401 28.4074 34.2809C28.4074 36.4216 26.6657 38.1633 24.525 38.1633H19.2383C17.5307 38.1633 16.0782 37.0547 15.5598 35.5199H15.2732C12.0526 35.5199 9.37124 33.1741 8.8434 30.1017C7.6045 29.7635 6.622 28.7994 6.25763 27.5714C3.17583 27.3314 0.734863 24.5056 0.734863 21.0641C0.734863 18.7679 1.82227 16.7464 3.46089 15.583V6.52575C3.46089 5.84146 4.01567 5.28669 4.69996 5.28669C5.38426 5.28669 5.93903 5.84146 5.93903 6.52575V14.5913C6.04443 14.5767 6.15066 14.5652 6.25772 14.5569C6.62316 13.3249 7.61086 12.3585 8.8553 12.0232C9.68506 5.20144 15.2245 0 21.8816 0C28.5387 0 34.0782 5.20144 34.908 12.0232C36.1524 12.3585 37.1401 13.325 37.5056 14.5569ZM25.9292 34.2809C25.9292 33.5065 25.2993 32.8766 24.525 32.8766H19.2383C18.4639 32.8766 17.834 33.5065 17.834 34.2809C17.834 35.0552 18.4639 35.6851 19.2383 35.6851H24.525C25.2993 35.6851 25.9292 35.0552 25.9292 34.2809ZM3.213 21.0641C3.213 19.0992 4.48717 17.4074 6.10415 17.0754V25.0528C4.48717 24.7209 3.213 23.0291 3.213 21.0641ZM10.1518 27.7551C10.835 27.7551 11.3908 27.1993 11.3908 26.516V15.6122C11.3908 14.929 10.835 14.3732 10.1518 14.3732H9.82135C9.13813 14.3732 8.58229 14.929 8.58229 15.6122V26.516C8.58229 27.1993 9.13813 27.7551 9.82135 27.7551H10.1518ZM35.1809 26.516C35.1809 27.1993 34.6251 27.7551 33.9419 27.7551H33.6114C32.9282 27.7551 32.3724 27.1993 32.3724 26.516V15.6122C32.3724 14.929 32.9282 14.3732 33.6114 14.3732H33.9419C34.6251 14.3732 35.1809 14.929 35.1809 15.6122V26.516ZM37.6591 17.0755V25.0529C39.276 24.7209 40.5502 23.0291 40.5502 21.0642C40.5502 19.0993 39.276 17.4075 37.6591 17.0755Z" fill="black"/>
</g>
</svg>
