<svg width="42" height="34" viewBox="0 0 42 34" fill="none" xmlns="http://www.w3.org/2000/svg">
<path fill-rule="evenodd" clip-rule="evenodd" d="M41.9808 20.6135C41.9808 25.138 40.5409 29.4328 37.8167 33.0344C37.2792 33.7452 36.2684 33.883 35.5598 33.3471C34.8501 32.8103 34.7101 31.7999 35.2466 31.0902C37.5441 28.0533 38.7585 24.4303 38.7585 20.6135C38.7585 10.9962 30.9698 3.22234 21.3578 3.22234C11.7393 3.22234 3.9572 11.0022 3.9572 20.6135C3.9572 24.4303 5.17156 28.0533 7.46874 31.0902C8.00559 31.7999 7.86555 32.8103 7.15595 33.3471C6.44602 33.884 5.43589 33.744 4.89873 33.0344C2.17485 29.4328 0.734863 25.138 0.734863 20.6135C0.734863 9.21451 9.96511 0 21.3578 0C32.7569 0 41.9808 9.22081 41.9808 20.6135ZM31.5664 10.9103C32.1955 11.5394 32.1955 12.5596 31.5664 13.1886L26.3147 18.4404C26.7471 19.2374 26.9932 20.15 26.9932 21.1186C26.9932 24.2261 24.465 26.7539 21.3578 26.7539C18.2504 26.7539 15.7225 24.2261 15.7225 21.1186C15.7225 18.0114 18.2504 15.4833 21.3578 15.4833C22.3268 15.4833 23.239 15.7294 24.0361 16.1617L29.2878 10.91C29.9172 10.281 30.9371 10.281 31.5664 10.9103ZM21.3578 18.7059C22.6883 18.7059 23.7708 19.7885 23.7708 21.1189C23.7708 22.4494 22.6883 23.5319 21.3578 23.5319C20.0274 23.5319 18.9449 22.4494 18.9449 21.1189C18.9449 19.7885 20.0274 18.7059 21.3578 18.7059Z" fill="black"/>
</svg>
