<svg width="44" height="35" viewBox="0 0 44 35" fill="none" xmlns="http://www.w3.org/2000/svg">
<g opacity="0.808919">
<path d="M42.1929 17.0082H38.454C37.7068 17.0082 37.1011 16.4024 37.1011 15.6552C37.1011 14.908 37.7068 14.3021 38.454 14.3021H42.1929C42.9401 14.3021 43.5458 14.9079 43.5458 15.6552C43.5458 16.4024 42.9401 17.0082 42.1929 17.0082Z" fill="black"/>
<path d="M22.0271 34.2489C21.3738 34.2489 20.8115 33.7806 20.6957 33.1343L17.7898 16.8989H16.5427L14.6303 25.7744C14.496 26.3975 13.945 26.8424 13.3077 26.8424C13.3072 26.8424 13.3071 26.8424 13.3069 26.8424C12.669 26.842 12.1182 26.3964 11.9847 25.7728L10.0843 16.8989H1.96521C1.21801 16.8988 0.612305 16.2932 0.612305 15.5458C0.612305 14.7986 1.21801 14.1928 1.96521 14.1928H11.1781C11.8161 14.1928 12.3674 14.6386 12.501 15.2625L13.3116 19.0477L14.1276 15.2607C14.2618 14.6376 14.8128 14.1927 15.4502 14.1927H18.9219C19.5771 14.1927 20.1382 14.6623 20.2536 15.3073L21.8019 23.9575L24.6151 1.87202C24.7007 1.19933 25.2713 0.694014 25.9495 0.690086C26.6282 0.686227 27.204 1.18488 27.2973 1.85652L29.0291 14.3022H33.537C34.2842 14.3022 34.8899 14.9079 34.8899 15.6552C34.8899 16.4024 34.2842 17.0082 33.537 17.0082H27.8513C27.1761 17.0082 26.6043 16.5105 26.5112 15.8417L26.0164 12.2858L23.3697 33.0671C23.2851 33.7298 22.7297 34.2317 22.0617 34.2486C22.0501 34.2487 22.0385 34.2489 22.0271 34.2489Z" fill="black"/>
</g>
</svg>
