<svg width="53" height="34" viewBox="0 0 53 34" fill="none" xmlns="http://www.w3.org/2000/svg">
<g opacity="0.808919">
<rect x="18.9795" y="21.4286" width="14.2857" height="3.06122" fill="black"/>
<circle cx="39.8981" cy="20.9184" r="3.06122" fill="black"/>
<circle cx="12.3469" cy="20.9184" r="3.06122" fill="black"/>
<path fill-rule="evenodd" clip-rule="evenodd" d="M52.2449 12.7551C52.2449 10.2232 50.185 8.16327 47.6531 8.16327H44.5918C44.1922 8.16327 43.8045 8.2148 43.4347 8.31122L40.4664 0H11.7785L8.8102 8.31122C8.44041 8.2148 8.05265 8.16327 7.65306 8.16327H4.59184C2.0599 8.16327 0 10.2232 0 12.7551C0 14.8158 1.36469 16.5637 3.23765 17.143C3.18878 17.3761 3.16327 17.6141 3.16327 17.8571V33.6735H12.8571V30.6122H39.3878V33.6735H49.0816V17.8571C49.0816 17.6141 49.0561 17.3761 49.0072 17.143C50.8802 16.5637 52.2449 14.8158 52.2449 12.7551ZM13.9358 3.06122H38.3091L40.8316 10.1244C40.5121 10.5797 40.2729 11.095 40.1352 11.6503C36.184 10.7139 31.2818 10.2041 26.1224 10.2041C20.9631 10.2041 16.0609 10.7139 12.1097 11.6503C11.972 11.095 11.7328 10.5797 11.4133 10.1244L13.9358 3.06122ZM3.06122 12.7551C3.06122 13.5991 3.74786 14.2857 4.59184 14.2857H5.39643C6.34867 13.6214 7.60347 13.0222 9.15918 12.4909C9.03347 11.7727 8.40673 11.2245 7.65306 11.2245H4.59184C3.74786 11.2245 3.06122 11.9111 3.06122 12.7551ZM46.0204 27.551H6.22449V17.8571C6.22449 17.4988 7.17357 16.2045 11.3906 14.9996C15.3051 13.8812 20.5369 13.2653 26.1224 13.2653C31.708 13.2653 36.9398 13.8812 40.8543 14.9996C45.0713 16.2045 46.0204 17.4988 46.0204 17.8571V27.551ZM46.8485 14.2857H47.6531C48.497 14.2857 49.1837 13.5991 49.1837 12.7551C49.1837 11.9111 48.497 11.2245 47.6531 11.2245H44.5918C43.8382 11.2245 43.2114 11.7727 43.0857 12.4909C44.6414 13.0222 45.8962 13.6214 46.8485 14.2857Z" fill="black"/>
</g>
</svg>
