<svg width="40" height="40" viewBox="0 0 40 40" fill="none" xmlns="http://www.w3.org/2000/svg">
<g opacity="0.808919">
<circle cx="27.9295" cy="10.747" r="2.45536" fill="black"/>
<path d="M38.862 12.7323C38.0425 10.6457 36.5399 7.63507 34.0345 5.14166C31.5381 2.65684 28.5594 1.19713 26.5001 0.410033C24.2394 -0.454022 21.6704 0.0906065 19.9555 1.79746L13.9292 7.79544C12.1429 9.57335 11.628 12.3091 12.648 14.6029C12.9643 15.3144 13.3083 16.0102 13.6758 16.6825L0.449484 29.9088C0.16167 30.1966 0 30.5869 0 30.994V37.7462C0 38.5938 0.68704 39.2808 1.5346 39.2808H8.28683C9.13439 39.2808 9.82143 38.5938 9.82143 37.7462V34.9839L12.5837 34.9838C13.4313 34.9838 14.1183 34.2968 14.1183 33.4492V30.687H16.8806C17.7281 30.687 18.4152 30 18.4152 29.1524C18.4152 28.3049 17.7281 27.6178 16.8806 27.6178H12.5837C11.7361 27.6178 11.0491 28.3049 11.0491 29.1524V31.9146L8.28683 31.9147C7.43927 31.9147 6.75223 32.6018 6.75223 33.4493V36.2116H3.0692V31.6296L16.6776 18.0212C17.1776 17.5213 17.2713 16.7445 16.9046 16.14C16.3728 15.2635 15.8842 14.3268 15.4526 13.3559C14.9463 12.2172 15.2043 10.8568 16.0946 9.97066L22.1207 3.97276C22.9811 3.11653 24.27 2.84345 25.4046 3.27697C27.1864 3.95802 29.7544 5.21164 31.8695 7.31695C33.9976 9.43501 35.2932 12.041 36.0053 13.8541C36.4496 14.9857 36.1796 16.2713 35.3174 17.1295L29.2184 23.1999C28.3303 24.0837 27.0047 24.3422 25.8411 23.8582C24.8814 23.4591 23.952 22.9849 23.0788 22.4489C22.3566 22.0056 21.4116 22.2318 20.9682 22.9541C20.5249 23.6765 20.751 24.6215 21.4733 25.0648C22.4825 25.6842 23.5555 26.2316 24.6624 26.692C26.9752 27.6541 29.6134 27.1371 31.3835 25.3753L37.4825 19.3049C39.2124 17.5832 39.7538 15.0033 38.862 12.7323Z" fill="black"/>
</g>
</svg>
