<svg id="Шар_1" data-name="Шар 1" xmlns="http://www.w3.org/2000/svg" viewBox="0 0 40.84 45.3"><defs><style>.cls-1{opacity:0.81;}.cls-2{fill-rule:evenodd;}</style></defs><title>mi-5</title><g class="cls-1"><path class="cls-2" d="M5.57,31.27h5.72a1.06,1.06,0,0,1,1.05,1.06v3.92a1.06,1.06,0,0,1-1.05,1.06H5.57a1.06,1.06,0,0,1-1.06-1.06V32.33A1.06,1.06,0,0,1,5.57,31.27Zm1.06,3.92h3.6v-1.8H6.63Z" transform="translate(-0.8 -0.8)"/><path d="M10.23,35.19v.2h.2v-.2Zm-3.6,0h-.2v.2h.2Zm3.6-1.8h.2v-.2h-.2Zm-3.6,0v-.2h-.2v.2Zm4.66-2.32H5.57v.4h5.72Zm1.25,1.26a1.26,1.26,0,0,0-1.25-1.26v.4a.86.86,0,0,1,.85.86Zm0,3.92V32.33h-.4v3.92Zm-1.25,1.26a1.26,1.26,0,0,0,1.25-1.26h-.4a.86.86,0,0,1-.85.86Zm-5.72,0h5.72v-.4H5.57ZM4.31,36.25a1.26,1.26,0,0,0,1.26,1.26v-.4a.87.87,0,0,1-.86-.86Zm0-3.92v3.92h.4V32.33Zm1.26-1.26a1.26,1.26,0,0,0-1.26,1.26h.4a.87.87,0,0,1,.86-.86ZM10.23,35H6.63v.4h3.6Zm-.2-1.6v1.8h.4v-1.8Zm-3.4.2h3.6v-.4H6.63Zm.2,1.6v-1.8h-.4v1.8Z" transform="translate(-0.8 -0.8)"/><path class="cls-2" d="M26.85,31.27h5.72a1.07,1.07,0,0,1,1.06,1.06v3.92a1.07,1.07,0,0,1-1.06,1.06H26.85a1.07,1.07,0,0,1-1.06-1.06V32.33A1.07,1.07,0,0,1,26.85,31.27Zm1.06,3.92h3.6v-1.8h-3.6Z" transform="translate(-0.8 -0.8)"/><path d="M31.51,35.19v.2h.2v-.2Zm-3.6,0h-.2v.2h.2Zm3.6-1.8h.2v-.2h-.2Zm-3.6,0v-.2h-.2v.2Zm4.66-2.32H26.85v.4h5.72Zm1.26,1.26a1.27,1.27,0,0,0-1.26-1.26v.4a.87.87,0,0,1,.86.86Zm0,3.92V32.33h-.4v3.92Zm-1.26,1.26a1.27,1.27,0,0,0,1.26-1.26h-.4a.87.87,0,0,1-.86.86Zm-5.72,0h5.72v-.4H26.85Zm-1.26-1.26a1.27,1.27,0,0,0,1.26,1.26v-.4a.87.87,0,0,1-.86-.86Zm0-3.92v3.92H26V32.33Zm1.26-1.26a1.27,1.27,0,0,0-1.26,1.26H26a.87.87,0,0,1,.86-.86ZM31.51,35h-3.6v.4h3.6Zm-.2-1.6v1.8h.4v-1.8Zm-3.4.2h3.6v-.4h-3.6Zm.2,1.6v-1.8h-.4v1.8Z" transform="translate(-0.8 -0.8)"/><path d="M22.78,35.09H15.41a1.06,1.06,0,0,0,0,2.11h7.37a1.06,1.06,0,1,0,0-2.11Z" transform="translate(-0.8 -0.8)"/><path d="M22.79,37.4H15.42a1.26,1.26,0,0,1,0-2.52h7.37a1.26,1.26,0,0,1,0,2.52Zm-7.37-2.11a.86.86,0,1,0,0,1.71h7.37a.86.86,0,0,0,0-1.71Z" transform="translate(-0.8 -0.8)"/><path d="M22.78,32.12H15.41a1.06,1.06,0,0,0,0,2.12h7.37a1.06,1.06,0,0,0,0-2.12Z" transform="translate(-0.8 -0.8)"/><path d="M22.79,34.44H15.42a1.26,1.26,0,0,1,0-2.52h7.37a1.26,1.26,0,0,1,0,2.52Zm-7.37-2.12a.86.86,0,0,0,0,1.72h7.37a.86.86,0,0,0,0-1.72Z" transform="translate(-0.8 -0.8)"/><path class="cls-2" d="M40.92,6.13l-9.39-5a1,1,0,0,0-1,0l-9.16,5a1.06,1.06,0,0,0-.56.93v7.09a13.82,13.82,0,0,0,.85,4.72H9.53A3.53,3.53,0,0,0,6.29,21L3.67,27.13l-1.06,1A4.69,4.69,0,0,0,1,31.7V42.41A3.45,3.45,0,0,0,4.41,45.9h2A3.47,3.47,0,0,0,9.9,42.41V41.12H28.22V42.4a3.51,3.51,0,0,0,3.5,3.49h2a3.51,3.51,0,0,0,3.49-3.49v-11A4.68,4.68,0,0,0,35.77,28L35,27.25l-.49-1.07A14.08,14.08,0,0,0,41.44,14V7.08A1,1,0,0,0,40.92,6.13ZM8.24,21.88A1.42,1.42,0,0,1,9.53,21H22.64a14.7,14.7,0,0,0,1,1.59,5.53,5.53,0,0,0-3.44,4.13h-14Zm20.24,4.84a15.2,15.2,0,0,1-3.25-2.33,3.39,3.39,0,0,0-2.84,2.33ZM7.79,42.4a1.35,1.35,0,0,1-1.33,1.37h-2A1.33,1.33,0,0,1,3.13,42.4V40.89a3.27,3.27,0,0,0,1.31.23H7.79Zm26,1.37a1.37,1.37,0,0,0,1.37-1.37V40.89a3.53,3.53,0,0,1-1.37.23H30.35V42.4a1.39,1.39,0,0,0,1.38,1.37ZM35.11,31.4v6.29A1.32,1.32,0,0,1,33.74,39H4.44a1.28,1.28,0,0,1-1.31-1.25V31.69a2.56,2.56,0,0,1,.88-2l0,0L5,28.84H33.61l.64.66,0,0h0l0,0A2.58,2.58,0,0,1,35.11,31.4ZM32,25.09A12,12,0,0,0,39.35,14V7.7L31,3.25,22.92,7.69v6.46a12,12,0,0,0,7.22,11l.86.37Z" transform="translate(-0.8 -0.8)"/><path d="M31.53,1.13l-.09.17h0Zm9.39,5-.09.18h0Zm-10.39-5,.09.17h0Zm-9.16,5,.09.17h0Zm-.56,8h0Zm.85,4.72v.2H22l-.1-.27ZM6.29,21l.18.08h0ZM3.67,27.13l.14.15,0,0,0,0Zm-1.06,1,.13.15h0ZM1,31.7H1ZM1,42.41H1ZM4.41,45.9v.2h0Zm2,0v.2h0ZM9.9,42.41h0Zm0-1.29v-.2H9.7v.2Zm18.32,0h.2v-.2h-.2Zm0,1.28h0Zm5.51,3.49v.2h0Zm3.49-3.49h0ZM35.77,28l-.15.14h0ZM35,27.25l-.19.08,0,0,0,0Zm-.49-1.07-.1-.17-.16.09.08.16ZM41.44,14h0Zm0-6.95-.2,0h.2ZM9.53,21v-.2h0Zm-1.29.88.18.08h0ZM22.64,21l.17-.1-.06-.1h-.11Zm1,1.59.08.19.24-.1-.15-.21Zm-3.44,4.13v.2h.17l0-.16Zm-14,0L6,26.64l-.12.28h.3Zm19.06-2.33.14-.15-.07-.06h-.09Zm3.25,2.33v.2l.1-.38Zm-6.09,0-.19-.06-.08.26h.27ZM6.46,43.77V44h0ZM7.79,42.4h0ZM3.13,40.89l.08-.19-.28-.11v.3Zm1.31.23v-.2h0Zm3.35,0H8v-.2h-.2Zm27.32-.23h.2V40.6l-.27.1Zm-1.37.23v-.2h0Zm-3.39,0v-.2h-.2v.2Zm0,1.28h0ZM4.44,39v-.2h0ZM3.13,37.75h0Zm0-6.06h0Zm.88-2,.13.15h0Zm0,0-.13-.15h0ZM5,28.84v-.2H4.9l-.06.05Zm28.64,0,.14-.14-.06-.06h-.08Zm.64.66-.14.14h0Zm0,0,.12-.16h0Zm0,0-.12.16h0Zm0,0-.15.14h0Zm5-15.53h0ZM32,25.09l-.08-.19h0ZM39.35,7.7h.2V7.58l-.11,0ZM31,3.25l.1-.17L31,3l-.09.05ZM22.92,7.69l-.09-.17-.11.05v.12Zm0,6.46h0Zm7.22,11-.08.19h0Zm.86.37-.08.19.08,0,.08,0ZM31.44,1.3l9.39,5L41,6,31.63,1Zm-.82,0a.83.83,0,0,1,.82,0L31.63,1a1.25,1.25,0,0,0-1.2,0Zm-9.16,5,9.16-5L30.43,1,21.27,6ZM21,7.08a.88.88,0,0,1,.45-.76L21.27,6a1.26,1.26,0,0,0-.66,1.11Zm0,7.09V7.08h-.4v7.09Zm.84,4.65A13.66,13.66,0,0,1,21,14.17h-.4A14,14,0,0,0,21.48,19Zm-12.32.27H21.66v-.4H9.53Zm-3.06,2a3.33,3.33,0,0,1,3.06-2v-.4A3.74,3.74,0,0,0,6.1,21ZM3.86,27.21l2.61-6.09L6.1,21,3.49,27.05ZM2.75,28.28l1.06-1L3.53,27l-1,1ZM1.2,31.7a4.48,4.48,0,0,1,1.54-3.41L2.48,28A4.87,4.87,0,0,0,.8,31.7Zm0,10.71V31.7H.8V42.41ZM4.42,45.7A3.25,3.25,0,0,1,1.2,42.42H.8A3.65,3.65,0,0,0,4.41,46.1Zm0,0h0v.4h0Zm2,0h-2v.4h2ZM9.7,42.41A3.27,3.27,0,0,1,6.45,45.7v.4a3.67,3.67,0,0,0,3.65-3.69Zm0-1.29v1.29h.4V41.12Zm18.52-.2H9.9v.4H28.22Zm.2,1.48V41.12H28V42.4Zm3.3,3.29a3.31,3.31,0,0,1-3.3-3.29H28a3.71,3.71,0,0,0,3.7,3.69Zm2,0h-2v.4h2ZM37,42.4a3.31,3.31,0,0,1-3.29,3.29v.4a3.71,3.71,0,0,0,3.68-3.69Zm0-11v11h.4v-11Zm-1.39-3.23A4.46,4.46,0,0,1,37,31.41h.4a4.85,4.85,0,0,0-1.51-3.52Zm-.75-.79.74.78.29-.27-.74-.79Zm-.52-1.13.48,1.07.37-.16-.49-1.07ZM41.24,14a13.91,13.91,0,0,1-6.8,12l.2.34a14.28,14.28,0,0,0,7-12.32Zm0-6.95v7h.4V7.08Zm-.41-.77a.77.77,0,0,1,.41.75l.4,0A1.17,1.17,0,0,0,41,6ZM9.52,20.8a1.62,1.62,0,0,0-1.47,1l.37.16a1.23,1.23,0,0,1,1.11-.76Zm13.12,0H9.53v.4H22.64Zm1.18,1.67a13.54,13.54,0,0,1-1-1.57l-.35.2a16.9,16.9,0,0,0,1,1.61Zm-3.41,4.29a5.32,5.32,0,0,1,3.32-4l-.15-.38A5.75,5.75,0,0,0,20,26.68Zm-14.24.16h14v-.4h-14ZM8.05,21.8,6,26.64l.36.16L8.42,22Zm17,2.74a15.39,15.39,0,0,0,3.3,2.36l.19-.36a14.26,14.26,0,0,1-3.21-2.3Zm-2.51,2.24a3.17,3.17,0,0,1,2.67-2.19l0-.4a3.58,3.58,0,0,0-3,2.47Zm5.9-.26H22.39v.4h6.09ZM6.46,44A1.55,1.55,0,0,0,8,42.4h-.4a1.14,1.14,0,0,1-1.14,1.16Zm-2,0h2v-.4h-2ZM2.93,42.4A1.53,1.53,0,0,0,4.44,44v-.4A1.13,1.13,0,0,1,3.33,42.4Zm0-1.51V42.4h.4V40.89Zm1.51,0a3,3,0,0,1-1.23-.22l-.15.37a3.49,3.49,0,0,0,1.39.25Zm3.35,0H4.44v.4H7.79ZM8,42.4V41.12h-.4V42.4Zm26.92,0a1.17,1.17,0,0,1-1.17,1.17V44a1.57,1.57,0,0,0,1.57-1.57Zm0-1.51V42.4h.4V40.89Zm-1.17.43a3.74,3.74,0,0,0,1.44-.25L35,40.7a3.34,3.34,0,0,1-1.29.22Zm-3.39,0h3.39v-.4H30.35Zm.2,1.08V41.12h-.4V42.4Zm1.18,1.17a1.18,1.18,0,0,1-1.18-1.17h-.4A1.58,1.58,0,0,0,31.73,44Zm2,0h-2V44h2Zm1.57-5.88V31.4h-.4v6.29ZM33.74,39.2a1.52,1.52,0,0,0,1.57-1.51h-.4a1.12,1.12,0,0,1-1.17,1.11Zm-29.3,0h29.3v-.4H4.44ZM2.93,37.76A1.48,1.48,0,0,0,4.45,39.2v-.4a1.08,1.08,0,0,1-1.11-1Zm0-.07v.06h.4v-.06Zm0-6v6h.4v-6Zm.95-2.11a2.79,2.79,0,0,0-.95,2.11h.4a2.36,2.36,0,0,1,.81-1.8Zm0,0,0,0,.28.28,0,0Zm.95-.87-.94.87.27.29L5.11,29Zm28.77-.05H5V29H33.61Zm.79.73-.65-.67-.29.28.65.66Zm0,0h0l-.28.29,0,0Zm0,0h0l-.24.32h0Zm.06.05-.06-.05-.23.32s0,0,0,0Zm.86,2a2.77,2.77,0,0,0-.87-2l-.27.29a2.38,2.38,0,0,1,.74,1.71ZM39.15,14A11.78,11.78,0,0,1,31.93,24.9l.16.37A12.17,12.17,0,0,0,39.55,14Zm0-6.32V14h.4V7.7ZM30.91,3.43l8.34,4.45.19-.35L31.1,3.08ZM23,7.87,31.1,3.43l-.19-.35L22.83,7.52Zm.1,6.28V7.69h-.4v6.46ZM30.22,25a11.84,11.84,0,0,1-7.1-10.82h-.4a12.25,12.25,0,0,0,7.34,11.19Zm.86.37L30.22,25l-.15.37.85.37Zm.85-.43-1,.43.16.37,1-.44Z" transform="translate(-0.8 -0.8)"/><path d="M36.3,11.69a1.06,1.06,0,0,0-1.5-.14l-4.95,4-1.8-2.11a1.07,1.07,0,0,0-1.5-.11,1.06,1.06,0,0,0-.11,1.49l2.47,2.89,0,0s0,0,0,0,0,0,0,.05l0,0,.06,0,0,0,.05,0,0,0,.07,0,0,0,.06,0H30l0,0h0s0,0,0,0l.05,0,0,0a.05.05,0,0,1,0,0l0,0,.05,0,0,0,5.76-4.68A1.07,1.07,0,0,0,36.3,11.69Z" transform="translate(-0.8 -0.8)"/><path d="M29.81,18.3h-.36l-.07,0-.13,0h-.08l-.06-.05,0,0-.05,0-.1-.07h0l-.05,0h0l-.1-.1L26.29,15a1.24,1.24,0,0,1-.3-.92,1.26,1.26,0,0,1,.43-.86,1.27,1.27,0,0,1,1.78.14l1.67,2,4.81-3.91a1.26,1.26,0,0,1,1.77.18h0a1.26,1.26,0,0,1-.18,1.77l-6,4.8,0,0h0l-.08.06h-.05l-.07,0-.07,0-.11,0Zm-.26-.41h.06l.3,0h0l.08,0,0,0,.06,0h0l0,0h.08l.05,0L36,13a.86.86,0,0,0-1.09-1.33l-5.11,4.16L27.9,13.6a.87.87,0,0,0-1.22-.09.84.84,0,0,0-.29.58.86.86,0,0,0,.2.63l2.52,2.94h0s.05,0,.06.06l0,0,.06,0h0l.07,0h.09l0,0h.08Zm.33,0h0Zm.11,0h0Z" transform="translate(-0.8 -0.8)"/></g></svg>