<svg width="46" height="46" viewBox="0 0 46 46" fill="none" xmlns="http://www.w3.org/2000/svg">
<g opacity="0.808919">
<path fill-rule="evenodd" clip-rule="evenodd" d="M23.0176 6.30017C13.6072 6.30017 5.95117 13.9562 5.95117 23.3666C5.95117 32.7771 13.6072 40.4331 23.0176 40.4331C32.4281 40.4331 40.0841 32.7771 40.0841 23.3666C40.0841 13.9562 32.4281 6.30017 23.0176 6.30017ZM23.0176 8.92578C30.0839 8.92578 35.9803 14.0276 37.2186 20.741C37.0861 20.7206 36.8489 20.7269 36.5287 20.7353C34.8565 20.7792 30.9202 20.8827 27.8051 17.5631C25.705 15.3248 22.9381 15.4728 23.017 15.4897C21.1847 15.4897 19.4846 16.2262 18.2303 17.563C16.3351 19.5826 13.5925 20.7409 10.7058 20.7409H8.81668C10.055 14.0276 15.9514 8.92578 23.0176 8.92578ZM9.62703 28.7712C14.7156 27.7001 19.5932 31.9654 19.048 37.2525C14.7604 36.0251 11.2835 32.8606 9.62703 28.7712ZM21.6347 37.741C22.5256 30.5217 15.8746 24.6467 8.86665 26.2525C8.67682 25.3197 8.57678 24.3547 8.57678 23.3666C8.70845 23.3457 8.95956 23.352 9.30695 23.3608C11.2541 23.4101 16.2261 23.5357 20.1451 19.3597C21.6971 17.7054 24.3262 17.6925 25.8904 19.3598C29.8067 23.533 34.7511 23.4093 36.7122 23.3603H36.7122C37.0659 23.3514 37.3225 23.345 37.4586 23.3666C37.4586 24.3547 37.3586 25.3197 37.1687 26.2525C30.1465 24.6437 23.5117 30.5369 24.4007 37.741C23.5065 37.8263 22.5989 37.833 21.6347 37.741ZM26.9873 37.2525C26.4415 31.9596 31.3258 27.7013 36.4084 28.7711C34.7519 32.8606 31.2748 36.0251 26.9873 37.2525Z" fill="black"/>
<path fill-rule="evenodd" clip-rule="evenodd" d="M23.0175 20.741C25.1892 20.741 26.9559 22.5078 26.9559 24.6794C26.9559 26.8512 25.1892 28.6179 23.0175 28.6179C20.8458 28.6179 19.0791 26.8511 19.0791 24.6794C19.0791 22.5078 20.8458 20.741 23.0175 20.741ZM21.7047 24.6794C21.7047 25.4034 22.2936 25.9923 23.0175 25.9923C23.7415 25.9923 24.3303 25.4034 24.3303 24.6794C24.3303 23.9556 23.7415 23.3666 23.0175 23.3666C22.2936 23.3666 21.7047 23.9556 21.7047 24.6794Z" fill="black"/>
<path fill-rule="evenodd" clip-rule="evenodd" d="M23.0175 0.961426C28.9788 0.961426 34.5988 3.2984 38.8423 7.54191C47.6235 16.3233 47.6206 30.4131 38.8423 39.1914C34.5988 43.4349 28.9788 45.7719 23.0175 45.7719C10.6814 45.7719 0.612305 35.7036 0.612305 23.3666C0.612305 11.0306 10.6807 0.961426 23.0175 0.961426ZM3.23792 23.3666C3.23792 34.2732 12.111 43.1463 23.0175 43.1463C33.9241 43.1463 42.7971 34.2732 42.7971 23.3666C42.7971 12.4601 33.9241 3.58704 23.0175 3.58704C12.111 3.58704 3.23792 12.4601 3.23792 23.3666Z" fill="black"/>
</g>
</svg>
