<svg width="55" height="45" viewBox="0 0 55 45" fill="none" xmlns="http://www.w3.org/2000/svg">
<g opacity="0.808919">
<path fill-rule="evenodd" clip-rule="evenodd" d="M9.27881 10.4902C9.27881 4.7312 13.9636 0.0465698 19.7224 0.0465698C25.4814 0.0465698 30.166 4.73134 30.166 10.4902C30.166 16.249 25.4814 20.9338 19.7224 20.9338C13.9634 20.9338 9.27881 16.2491 9.27881 10.4902ZM12.2628 10.4902C12.2628 14.6019 15.6107 17.9498 19.7224 17.9498C23.8343 17.9498 27.182 14.6019 27.182 10.4902C27.182 6.37844 23.8341 3.03054 19.7224 3.03054C15.6107 3.03054 12.2628 6.37844 12.2628 10.4902Z" fill="black"/>
<path fill-rule="evenodd" clip-rule="evenodd" d="M33.1504 19.4418C33.1504 15.3301 36.4983 11.9822 40.61 11.9822C44.7218 11.9822 48.0697 15.3301 48.0697 19.4418C48.0697 23.5535 44.7218 26.9014 40.61 26.9014C36.4983 26.9014 33.1504 23.5535 33.1504 19.4418ZM36.1342 19.4418C36.1342 21.9095 38.1423 23.9176 40.61 23.9176C43.0776 23.9176 45.0858 21.9095 45.0858 19.4418C45.0858 16.9741 43.0777 14.966 40.61 14.966C38.1423 14.966 36.1342 16.9741 36.1342 19.4418Z" fill="black"/>
<path d="M19.7229 23.9176C9.02861 23.9176 0.327637 32.6186 0.327637 43.3128C0.327637 44.1364 0.996071 44.8048 1.81962 44.8048C2.64317 44.8048 3.3116 44.1364 3.3116 43.3128C3.3116 34.2627 10.6728 26.9016 19.7229 26.9016C28.7729 26.9016 36.1341 34.2627 36.1341 43.3128C36.1341 44.1364 36.8025 44.8048 37.6261 44.8048C38.4496 44.8048 39.1181 44.1364 39.1181 43.3128C39.1181 32.6186 30.4171 23.9176 19.7229 23.9176Z" fill="black"/>
<path d="M40.6099 29.8854C38.1542 29.8854 35.7491 30.5567 33.6545 31.8249C32.9533 32.2546 32.7264 33.1706 33.1532 33.8749C33.5858 34.5791 34.4988 34.8029 35.2031 34.3762C36.8292 33.3884 38.6972 32.8692 40.6099 32.8692C46.3687 32.8692 51.0535 37.5538 51.0535 43.3128C51.0535 44.1364 51.7219 44.8048 52.5454 44.8048C53.369 44.8048 54.0374 44.1364 54.0374 43.3128C54.0373 35.9098 48.0128 29.8854 40.6099 29.8854Z" fill="black"/>
</g>
</svg>
