<svg width="42" height="49" viewBox="0 0 42 49" fill="none" xmlns="http://www.w3.org/2000/svg">
<g opacity="0.808919">
<path fill-rule="evenodd" clip-rule="evenodd" d="M9.18262 11.8201C9.18262 5.30249 14.4851 0 21.0027 0C27.5203 0 32.8228 5.3024 32.8228 11.82C32.8228 18.3376 27.5203 23.6401 21.0027 23.6401C14.4851 23.6401 9.18262 18.3377 9.18262 11.8201ZM12.1376 11.8201C12.1376 16.7083 16.1145 20.6852 21.0027 20.6852C25.8909 20.6852 29.8678 16.7083 29.8678 11.8201C29.8678 6.93192 25.8909 2.95502 21.0027 2.95502C16.1145 2.95502 12.1376 6.93192 12.1376 11.8201Z" fill="black"/>
<path fill-rule="evenodd" clip-rule="evenodd" d="M0.810059 46.7878C0.810059 35.6536 9.86848 26.5952 21.0027 26.5952C32.1369 26.5952 41.1953 35.6536 41.1953 46.7879V48.2653H0.810059V46.7878ZM21.0027 29.5502C11.9955 29.5502 4.57975 36.4946 3.82777 45.3103H38.1776C37.4256 36.4945 30.0098 29.5502 21.0027 29.5502Z" fill="black"/>
</g>
</svg>
