<svg width="48" height="49" viewBox="0 0 48 49" fill="none" xmlns="http://www.w3.org/2000/svg">
<g opacity="0.808919">
<path fill-rule="evenodd" clip-rule="evenodd" d="M47.2279 1.28216C46.6886 0.742779 45.814 0.742779 45.2746 1.28216L41.2518 5.30496C41.0045 5.1871 40.7436 5.09217 40.4711 5.02412L27.9699 1.93562C26.5661 1.58472 25.0582 2.00229 24.035 3.02552L1.70135 25.3224C0.0858783 26.938 0.0858783 29.5668 1.70135 31.1824L17.3278 46.8088C18.9434 48.4244 21.5722 48.4245 23.1878 46.8088L45.4847 24.4751C46.508 23.4518 46.9256 21.944 46.5745 20.5401L43.4861 8.03897C43.418 7.7666 43.3232 7.50557 43.2053 7.25825L47.2281 3.23546C47.7673 2.69608 47.7673 1.82154 47.2279 1.28216ZM43.8945 21.2102C44.0115 21.6782 43.8723 22.1807 43.5312 22.5219L21.2343 44.8555C20.6958 45.3941 19.8195 45.3941 19.2809 44.8555L3.65456 29.229C3.116 28.6905 3.116 27.8142 3.65456 27.2756L25.9883 4.97882C26.2495 4.7176 26.6055 4.57479 26.9681 4.57479C27.0789 4.57479 27.1904 4.58814 27.2999 4.61549L39.0424 7.51432L35.7161 10.8406C34.1762 10.1071 32.274 10.3761 31.0009 11.6492C29.3853 13.2648 29.3853 15.8935 31.0009 17.5092C31.8086 18.3169 32.8698 18.7209 33.9309 18.7209C34.9919 18.7209 36.053 18.317 36.8607 17.5092C38.134 16.2359 38.403 14.3338 37.6693 12.7939L40.9956 9.46762L43.8945 21.2102ZM32.9542 15.5559C33.4928 16.0945 34.369 16.0944 34.9075 15.5559C35.446 15.0175 35.4461 14.1412 34.9075 13.6027L34.9074 13.6027L34.9073 13.6026C34.6382 13.3334 34.2844 13.1988 33.9309 13.1988C33.5771 13.1988 33.2235 13.3333 32.9542 13.6027C32.4158 14.1411 32.4158 15.0175 32.9542 15.5559Z" fill="black"/>
<path fill-rule="evenodd" clip-rule="evenodd" d="M17.3278 17.5092C18.9435 15.8937 21.5722 15.8937 23.1878 17.5092C24.8035 19.1249 24.8035 21.7535 23.1878 23.3692C21.5722 24.9848 18.9434 24.9848 17.3278 23.3692C15.7123 21.7535 15.7123 19.1248 17.3278 17.5092ZM19.2813 21.4158C19.8198 21.9544 20.696 21.9544 21.2346 21.4158C21.7731 20.8773 21.7731 20.001 21.2346 19.4625C20.696 18.924 19.8198 18.9241 19.2812 19.4625C18.7427 20.001 18.7428 20.8773 19.2813 21.4158Z" fill="black"/>
<path fill-rule="evenodd" clip-rule="evenodd" d="M19.2811 31.1823C20.9007 29.5628 23.5216 29.563 25.141 31.1823C26.7566 32.798 26.7566 35.4266 25.141 37.0423C23.5214 38.6619 20.9005 38.6616 19.2811 37.0423C17.6654 35.4266 17.6654 32.798 19.2811 31.1823ZM21.2344 35.089C21.7741 35.6288 22.648 35.6288 23.1877 35.089C23.7261 34.5504 23.7261 33.6742 23.1877 33.1357C22.6479 32.5959 21.7741 32.596 21.2344 33.1357C20.6959 33.6742 20.6959 34.5505 21.2344 35.089Z" fill="black"/>
<path d="M31.3973 26.1466C31.3131 25.3885 30.6301 24.8421 29.872 24.9263L12.2923 26.8796C11.5342 26.9639 10.9878 27.6467 11.072 28.405C11.1506 29.1113 11.7485 29.6338 12.4431 29.6338C12.4941 29.6338 12.5456 29.6309 12.5974 29.6252L30.1772 27.6719C30.9353 27.5876 31.4817 26.9048 31.3973 26.1466Z" fill="black"/>
</g>
</svg>
