<svg width="50" height="50" viewBox="0 0 50 50" fill="none" xmlns="http://www.w3.org/2000/svg">
<g opacity="0.295685">
<path fill-rule="evenodd" clip-rule="evenodd" d="M20.5843 41.1306C9.24458 41.1306 0.019043 31.9051 0.019043 20.5653C0.019043 9.22554 9.24458 0 20.5843 0C31.9241 0 41.1496 9.22554 41.1496 20.5653C41.1496 31.9051 31.9241 41.1306 20.5843 41.1306ZM20.5843 3.89864C11.3943 3.89864 3.91768 11.3752 3.91768 20.5653C3.91768 29.7554 11.3943 37.232 20.5843 37.232C29.7744 37.232 37.251 29.7554 37.251 20.5653C37.251 11.3752 29.7744 3.89864 20.5843 3.89864ZM49.3507 46.613C50.1119 47.3742 50.1119 48.6085 49.3507 49.3698C48.97 49.7504 48.4713 49.9406 47.9724 49.9406C47.4734 49.9406 46.9745 49.7504 46.5939 49.3698L37.8707 40.6466C37.1095 39.8854 37.1095 38.6511 37.8707 37.8898C38.6319 37.1285 39.8662 37.1285 40.6275 37.8898L49.3507 46.613Z" fill="black"/>
</g>
</svg>
