<svg width="21" height="20" viewBox="0 0 21 20" fill="none" xmlns="http://www.w3.org/2000/svg">
<g opacity="0.536365">
<path fill-rule="evenodd" clip-rule="evenodd" d="M19.7854 11.4062H17.5547V10.7031C17.5547 10.057 17.0027 9.53125 16.3242 9.53125H14.1914C13.5129 9.53125 12.9609 10.057 12.9609 10.7031V11.4062H11.9766V7.10938C11.9766 6.03242 11.0566 5.15625 9.92578 5.15625H8.85938V1.17188C8.85938 0.525703 8.30739 0 7.62891 0H4.34766C3.66918 0 3.11719 0.525703 3.11719 1.17188V5.15625H2.05078C0.919981 5.15625 0 6.03242 0 7.10938V10.0391C0 10.2548 0.183627 10.4297 0.410156 10.4297C0.636686 10.4297 0.820312 10.2548 0.820312 10.0391V7.10938C0.820312 6.4632 1.3723 5.9375 2.05078 5.9375H9.92578C10.6043 5.9375 11.1562 6.4632 11.1562 7.10938V11.4062H10.7302C10.0605 11.4062 9.51562 11.9252 9.51562 12.563V17.6562H2.05078C1.3723 17.6562 0.820312 17.1305 0.820312 16.4844V13.5547C0.820312 13.3389 0.636686 13.1641 0.410156 13.1641C0.183627 13.1641 0 13.3389 0 13.5547V16.4844C0 17.4276 0.705674 18.2167 1.64062 18.3982V18.8281C1.64062 19.4743 2.19261 20 2.87109 20C3.54957 20 4.10156 19.4743 4.10156 18.8281V18.4375H7.875V18.8281C7.875 19.4743 8.42699 20 9.10547 20C9.41801 20 9.70352 19.8882 9.92078 19.7048C10.1358 19.8882 10.4195 20 10.7302 20H19.7854C20.4551 20 21 19.4811 21 18.8433V12.563C21 11.9252 20.4551 11.4062 19.7854 11.4062ZM4.34766 0.78125H7.62891C7.85507 0.78125 8.03906 0.956484 8.03906 1.17188V1.5625H3.9375V1.17188C3.9375 0.956484 4.1215 0.78125 4.34766 0.78125ZM3.9375 2.34375V5.15625H8.03906V2.34375H3.9375ZM20.1797 12.563V13.2592C19.6325 13.1198 19.2008 12.7087 19.0544 12.1875H19.7854C20.0028 12.1875 20.1797 12.3559 20.1797 12.563ZM18.375 18.7055C18.6921 18.0034 19.367 17.4811 20.1797 17.3477V14.0585C19.367 13.9252 18.6921 13.4028 18.375 12.7007V18.7055ZM10.3359 14.0585C11.1487 13.9252 11.8235 13.4028 12.1406 12.7007V18.7055C11.8235 18.0034 11.1487 17.481 10.3359 17.3477V14.0585ZM17.5547 12.1875H12.9609V19.2188H17.5547V12.1875ZM13.7812 10.7031C13.7812 10.4877 13.9652 10.3125 14.1914 10.3125H16.3242C16.5504 10.3125 16.7344 10.4877 16.7344 10.7031V11.4062H13.7812V10.7031ZM11.4612 12.1875H10.7302C10.5128 12.1875 10.3359 12.3559 10.3359 12.563V13.2592C10.8832 13.1198 11.3149 12.7087 11.4612 12.1875ZM3.28125 18.8281C3.28125 19.0435 3.09725 19.2188 2.87109 19.2188C2.64493 19.2188 2.46094 19.0435 2.46094 18.8281V18.4375H3.28125V18.8281ZM8.69531 18.8281C8.69531 19.0435 8.87931 19.2188 9.10547 19.2188C9.33163 19.2188 9.51562 19.0435 9.51562 18.8281V18.4375H8.69531V18.8281ZM10.3359 18.8433V18.8281V18.1471C10.8832 18.2864 11.3149 18.6975 11.4612 19.2188H10.7302C10.5128 19.2188 10.3359 19.0503 10.3359 18.8433ZM19.0544 19.2188H19.7854C20.0028 19.2188 20.1797 19.0503 20.1797 18.8433V18.1471C19.6324 18.2864 19.2008 18.6976 19.0544 19.2188Z" fill="black"/>
<path fill-rule="evenodd" clip-rule="evenodd" d="M2.21484 10.8594C2.21484 9.98344 2.96309 9.27082 3.88279 9.27082C4.80252 9.27082 5.55077 9.98344 5.55077 10.8594C5.55077 11.7353 4.80252 12.4479 3.88279 12.4479C2.96309 12.4479 2.21484 11.7353 2.21484 10.8594ZM3.03516 10.8594C3.03516 11.3045 3.41541 11.6667 3.88279 11.6667C4.3502 11.6667 4.73045 11.3045 4.73045 10.8594C4.73045 10.4142 4.3502 10.0521 3.88279 10.0521C3.41541 10.0521 3.03516 10.4142 3.03516 10.8594Z" fill="black"/>
<path fill-rule="evenodd" clip-rule="evenodd" d="M5.29344 13.2361C5.43847 12.9968 5.69823 12.854 5.98829 12.854C6.27835 12.854 6.5381 12.9968 6.68317 13.2361L7.77989 15.0451C7.92492 15.2843 7.92492 15.57 7.77989 15.8093C7.63486 16.0485 7.37507 16.1914 7.085 16.1914H4.89161C4.60155 16.1914 4.34176 16.0485 4.19673 15.8093C4.05169 15.57 4.05169 15.2843 4.19673 15.0451L5.29344 13.2361ZM5.98829 13.6523L4.92266 15.4102H7.05391L5.98829 13.6523Z" fill="black"/>
<path fill-rule="evenodd" clip-rule="evenodd" d="M9.91212 10.1877C9.91212 10.4034 9.7285 10.5783 9.50197 10.5783H7.25977C7.03324 10.5783 6.84961 10.4034 6.84961 10.1877V8.05227C6.84961 7.83652 7.03324 7.66164 7.25977 7.66164H9.50197C9.7285 7.66164 9.91212 7.83652 9.91212 8.05227V10.1877ZM9.09181 8.44293H7.66992V9.79711H9.09181V8.44293Z" fill="black"/>
<path d="M0.410156 12.1875C0.518027 12.1875 0.623848 12.1457 0.700137 12.073C0.776426 12.0004 0.820312 11.8996 0.820312 11.7969C0.820312 11.6941 0.776426 11.5934 0.700137 11.5207C0.623848 11.448 0.518027 11.4062 0.410156 11.4062C0.302285 11.4062 0.196465 11.448 0.120176 11.5207C0.0438867 11.5934 0 11.6941 0 11.7969C0 11.8996 0.0438867 12.0004 0.120176 12.073C0.196465 12.1457 0.302285 12.1875 0.410156 12.1875Z" fill="black"/>
</g>
</svg>
