<svg width="16" height="20" viewBox="0 0 16 20" fill="none" xmlns="http://www.w3.org/2000/svg">
<g opacity="0.536365">
<path fill-rule="evenodd" clip-rule="evenodd" d="M15.1111 12.2685C15.1111 12.92 15.0036 13.5687 14.7952 14.2043C15.4833 14.3498 16 14.925 16 15.6132V15.8565C16 16.6089 15.8142 18.3622 15.368 19.2004C15.1042 19.694 14.5755 20 13.9878 20H2.07725C1.44271 20 0.880208 19.6432 0.645 19.0906L0.449667 18.6324C0.135417 17.8988 0 16.2781 0 15.6132C0 14.925 0.51675 14.3497 1.20479 14.2043C0.996417 13.5687 0.888875 12.92 0.888875 12.2685C0.888875 11.5483 1.01217 10.8362 1.25521 10.1522L2.25696 7.3348C2.59462 6.3859 3.40454 5.67547 4.4245 5.43457C4.79258 5.34785 5.26075 5.25625 5.77779 5.17793V4.16668H5.33333C4.84292 4.16668 4.44446 3.79273 4.44446 3.33336V1.66668C4.44446 0.747461 5.24221 0 6.22225 0H9.77779C10.7578 0 11.5555 0.747461 11.5555 1.66668V3.33336C11.5555 3.79273 11.1571 4.16668 10.6667 4.16668H10.2222V5.17793C10.7393 5.25625 11.2074 5.34785 11.5755 5.43457C12.5955 5.67547 13.4054 6.3859 13.743 7.3348L14.7448 10.1522C14.9879 10.8362 15.1111 11.5482 15.1111 12.2685ZM5.33333 1.66668V3.33336H10.6666V1.66668C10.6666 1.2073 10.2682 0.833359 9.77775 0.833359H6.22221C5.73179 0.833359 5.33333 1.2073 5.33333 1.66668ZM9.33333 4.16668V5.07086C8.90679 5.03039 8.46504 5 8 5C7.53496 5 7.09321 5.03035 6.66667 5.07086V4.16668H9.33333ZM3.10071 7.59848L2.09896 10.4159C1.88542 11.0148 1.77779 11.6382 1.77775 12.2685C1.77775 12.957 1.91921 13.6429 2.18704 14.312C2.49762 14.4466 2.76288 14.6655 2.92358 14.9659L3.33246 15.7325C3.4615 15.6916 3.63 15.6425 3.81492 15.591L3.23433 14.5195C2.86196 13.8213 2.66663 13.0441 2.66663 12.2686C2.66663 11.7278 2.7595 11.1931 2.94179 10.6792L3.94354 7.86098C4.08592 7.46098 4.43575 7.15051 4.85763 7.05082C5.60242 6.87547 6.75258 6.66672 8 6.66672C9.24825 6.66672 10.3976 6.87543 11.1415 7.05082C11.5642 7.15051 11.914 7.46137 12.0564 7.86258L13.0582 10.6791C13.2405 11.1931 13.3333 11.7277 13.3333 12.2685C13.3333 13.0441 13.138 13.8208 12.7682 14.515L12.185 15.591C12.3699 15.6425 12.5384 15.6916 12.6675 15.7325L13.0764 14.9662C13.2371 14.6657 13.5023 14.4467 13.8129 14.312C14.0807 13.643 14.2222 12.957 14.2222 12.2685C14.2222 11.6382 14.1146 11.0148 13.901 10.4159L12.8993 7.59848C12.6588 6.9202 12.0825 6.41359 11.3585 6.2427C10.5668 6.05594 9.34025 5.83336 8 5.83336C6.65975 5.83336 5.43317 6.05594 4.6415 6.2427C3.91754 6.41359 3.34117 6.92016 3.10071 7.59848ZM11.9748 14.1402L11.3066 15.3736C10.4177 15.1788 9.26342 15 8 15C6.73658 15 5.58229 15.1788 4.69346 15.3736L4.02775 14.1447C3.71871 13.5641 3.55554 12.9155 3.55554 12.2685C3.55554 11.8177 3.63279 11.3717 3.78558 10.9428L4.78733 8.12422C4.83333 7.99359 4.94621 7.88902 5.07467 7.85891C5.77083 7.69531 6.84288 7.5 8 7.5C9.158 7.5 10.2292 7.69531 10.9245 7.85891C11.053 7.88941 11.1667 7.99359 11.2127 8.12543L12.2145 10.9428C12.3672 11.3717 12.4445 11.8177 12.4445 12.2685C12.4445 12.9154 12.2812 13.5636 11.9748 14.1402ZM14.5729 18.8273C14.9062 18.2019 15.1111 16.6752 15.1111 15.8565V15.6132C15.1111 15.275 14.8177 15 14.4566 15C14.2075 15 13.9835 15.1302 13.8715 15.3393L13.2865 16.4363C13.1832 16.6304 12.9358 16.7154 12.724 16.6369C12.7022 16.6288 10.5434 15.8333 8 15.8333C5.44879 15.8333 3.29775 16.6288 3.27604 16.6369C3.06337 16.7179 2.81683 16.63 2.71354 16.4363L2.12846 15.3389C2.01646 15.1302 1.7925 15 1.54338 15C1.18229 15 0.888875 15.275 0.888875 15.6132C0.888875 16.3501 1.03904 17.7722 1.27429 18.3227L1.46962 18.7813C1.56942 19.0153 1.80817 19.1667 2.07725 19.1667H13.9878C14.237 19.1667 14.4609 19.0364 14.5729 18.8273Z" fill="black"/>
<path d="M12.8654 17.3698C12.7882 17.1509 12.5339 17.0325 12.3055 17.1045C12.2925 17.1082 10.9766 17.5 7.99999 17.5C5.02341 17.5 3.70745 17.1082 3.69445 17.1045C3.46528 17.0325 3.21095 17.1509 3.13453 17.3698C3.05728 17.5879 3.18228 17.8227 3.41491 17.8951C3.4722 17.913 4.85328 18.3334 7.99999 18.3334C11.1467 18.3334 12.5278 17.913 12.5851 17.8951C12.8177 17.8227 12.9427 17.5879 12.8654 17.3698Z" fill="black"/>
</g>
</svg>
